<?xml version="1.0" encoding="UTF-8"?>
<svg width="33px" height="32px" viewBox="0 0 33 32" version="1.1" xmlns="http://www.w3.org/2000/svg" xmlns:xlink="http://www.w3.org/1999/xlink">
    <!-- Generator: Sketch 52.5 (67469) - http://www.bohemiancoding.com/sketch -->
    <title>Group 17</title>
    <desc>Created with Sketch.</desc>
    <g id="Page-1" stroke="none" stroke-width="1" fill="none" fill-rule="evenodd">
        <g id="1" transform="translate(-780.000000, -433.000000)" fill="#FFFFFF">
            <g id="Group-20" transform="translate(627.000000, 431.000000)">
                <g id="Group-17" transform="translate(153.000000, 2.000000)">
                    <path d="M29.9997091,29.4781091 L21.5352242,28.7023515 C21.3946182,28.6878061 21.2520727,28.7062303 21.1201939,28.7547152 C15.5512242,30.7571394 9.32673939,28.9185939 5.73886061,24.2126545 C2.15098182,19.5067152 2.0278303,13.017503 5.43437576,8.17871515 C8.84092121,3.33895758 14.9897697,1.26574545 20.6314667,3.05386667 C26.2721939,4.84295758 30.1015273,10.0822303 30.0976485,16.0002909 C30.0986182,17.5731394 29.8222545,19.1343515 29.2840727,20.6121697 C29.2346182,20.7469576 29.2152242,20.8904727 29.2278303,21.0330182 L29.9997091,29.4781091 Z M16.5218909,0.485139394 C10.3517091,0.468654545 4.75849697,4.10986667 2.27704242,9.75932121 C-0.204412121,15.4087758 0.896193939,21.9901091 5.08237576,26.5244121 C9.26758788,31.0567758 15.7412848,32.6800485 21.5701333,30.6562909 L30.9752242,31.5105939 L31.0634667,31.5105939 C31.3359515,31.5115636 31.5968,31.3971394 31.7820121,31.1964121 C31.9662545,30.9947152 32.0574061,30.7251394 32.0331636,30.4526545 L31.1798303,21.0669576 C31.7480727,19.4378667 32.0380121,17.7244121 32.0370424,16.0002909 C32.0263758,7.43592727 25.0862545,0.494836364 16.5218909,0.485139394 Z" id="Fill-1"></path>
                    <path d="M12.6228364,20.8071758 L9.42962424,17.6139636 L8.05847273,18.9851152 L11.9372606,22.863903 C12.3164121,23.2420848 12.9292606,23.2420848 13.3084121,22.863903 L24.9447758,11.2275394 L23.5736242,9.85638788 L12.6228364,20.8071758 Z" id="Fill-3"></path>
                </g>
            </g>
        </g>
    </g>
</svg>