<?xml version="1.0" encoding="UTF-8"?>
<svg width="32px" height="32px" viewBox="0 0 32 32" version="1.1" xmlns="http://www.w3.org/2000/svg" xmlns:xlink="http://www.w3.org/1999/xlink">
    <!-- Generator: Sketch 52.5 (67469) - http://www.bohemiancoding.com/sketch -->
    <title>Group 15</title>
    <desc>Created with Sketch.</desc>
    <g id="Page-1" stroke="none" stroke-width="1" fill="none" fill-rule="evenodd">
        <g id="1" transform="translate(-1180.000000, -434.000000)" fill="#FFFFFF">
            <g id="Group-21" transform="translate(1027.000000, 432.000000)">
                <g id="Group-15" transform="translate(153.000000, 2.000000)">
                    <path d="M15.2227879,15.2988121 L20.3001212,28.6214788 L22.1745455,22.8963879 C22.2744242,22.5909333 22.5158788,22.3504485 22.8203636,22.2505697 L28.5454545,20.3751758 L15.2227879,15.2988121 Z M20.3195152,31.2619636 C19.6126061,31.2619636 18.969697,30.8178424 18.7185455,30.1584485 L13.0865455,15.3763879 C13.0186667,15.2241455 12.9721212,15.0020848 12.9721212,14.7625697 C12.9721212,13.8171152 13.7410909,13.0471758 14.6875152,13.0471758 C14.9318788,13.0471758 15.1578182,13.0937212 15.3633939,13.1868121 L30.0824242,18.7926303 C30.7427879,19.0437818 31.1869091,19.6876606 31.1869091,20.3955394 C31.1869091,21.1402667 30.7088485,21.7957818 30.0009697,22.0265697 L23.9384242,24.0125091 L21.9505455,30.079903 C21.7187879,30.7868121 21.0632727,31.2619636 20.3195152,31.2619636 Z" id="Fill-13"></path>
                    <path d="M13.6483879,27.2143515 C6.20887273,27.2143515 0.156993939,21.161503 0.156993939,13.7219879 C0.156993939,6.28344242 6.20887273,0.231563636 13.6483879,0.231563636 C21.087903,0.231563636 27.1397818,6.28344242 27.1397818,13.7219879 C27.1397818,13.9198061 27.1378424,14.1156848 27.123297,14.313503 C27.0806303,14.8710788 26.5870545,15.292897 26.035297,15.2444121 C25.4786909,15.2017455 25.0626909,14.7159273 25.1043879,14.1583515 C25.1169939,14.012897 25.1160242,13.8674424 25.1160242,13.7219879 C25.1160242,7.39859394 19.9717818,2.25532121 13.6483879,2.25532121 C7.32499394,2.25532121 2.18075152,7.39859394 2.18075152,13.7219879 C2.18075152,20.0463515 7.32499394,25.1905939 13.6483879,25.1905939 C13.7977212,25.1886545 13.9528727,25.1915636 14.0963879,25.180897 C14.6471758,25.1372606 15.1407515,25.5552 15.1834182,26.1118061 C15.2270545,26.6693818 14.8100848,27.1542303 14.2525091,27.1978667 C14.0556606,27.2124121 13.8452364,27.2143515 13.6483879,27.2143515" id="Fill-15"></path>
                </g>
            </g>
        </g>
    </g>
</svg>