<?xml version="1.0" encoding="UTF-8"?>
<svg width="34px" height="33px" viewBox="0 0 34 33" version="1.1" xmlns="http://www.w3.org/2000/svg" xmlns:xlink="http://www.w3.org/1999/xlink">
    <!-- Generator: Sketch 52.5 (67469) - http://www.bohemiancoding.com/sketch -->
    <title>Group 6</title>
    <desc>Created with Sketch.</desc>
    <defs>
        <polygon id="path-1" points="0 0.707921053 33.1764706 0.707921053 33.1764706 31.0588235 0 31.0588235"></polygon>
    </defs>
    <g id="Page-1" stroke="none" stroke-width="1" fill="none" fill-rule="evenodd">
        <g id="1" transform="translate(-381.000000, -432.000000)">
            <g id="Group-19" transform="translate(228.000000, 430.000000)">
                <g id="Group-6" transform="translate(153.000000, 2.000000)">
                    <g id="Group-3" transform="translate(0.000000, 0.233224)">
                        <mask id="mask-2" fill="white">
                            <use xlink:href="#path-1"></use>
                        </mask>
                        <g id="Clip-2"></g>
                        <path d="M28.2839529,4.73167059 C24.9531294,1.65778824 20.4467765,0.240376471 15.9253647,0.844611765 C8.45618824,1.84131765 2.82324706,8.45402353 2.82324706,16.2272 L2.82324706,16.7693176 L0.907952941,16.7693176 C0.535247059,16.7693176 0.214305882,16.9829647 0.0712470588,17.3274353 C-0.0718117647,17.6728471 0.00348235294,18.0512 0.267011765,18.3156706 L3.07454118,21.1213176 C3.42842353,21.4752 4.00348235,21.4733176 4.3536,21.1222588 L7.16677647,18.3156706 C7.43124706,18.0521412 7.50654118,17.6737882 7.36348235,17.3283765 C7.22136471,16.9839059 6.90042353,16.7693176 6.52677647,16.7693176 L4.61524706,16.7693176 L4.61524706,15.8827294 C4.61524706,8.50767059 10.6190118,2.50767059 17.9997176,2.50767059 C21.7983059,2.50767059 25.4340706,4.13778824 27.9743059,6.98108235 C30.5456,9.86014118 31.7230118,13.5712 31.2872471,17.4290824 C30.6152471,23.3914353 25.8331294,28.3137882 19.9159529,29.1344941 C16.2641882,29.6417882 12.6773647,28.6902588 9.82654118,26.4530824 C9.45383529,26.1613176 8.94654118,26.1857882 8.61901176,26.5123765 C8.43454118,26.6968471 8.3376,26.9537882 8.35265882,27.2154353 C8.36865882,27.4676706 8.48912941,27.6992 8.68489412,27.8526118 C11.3408941,29.9344941 14.6274824,31.0592 18.0194824,31.0592 C18.2839529,31.0592 18.5493647,31.0516706 18.8157176,31.0384941 C26.0721882,30.6601412 32.7733647,23.9589647 33.1554824,16.6968471 C33.3936,12.1697882 31.6176,7.80931765 28.2839529,4.73167059" id="Fill-1" fill="#FFFFFF" mask="url(#mask-2)"></path>
                    </g>
                    <polygon id="Fill-4" fill="#FFFFFF" points="16.6000941 7.7728 16.6000941 17.5328 24.8551529 22.4344471 24.9558588 22.4956235 25.7088 21.2118588 18.2885647 16.8024471 18.2885647 7.7728"></polygon>
                </g>
            </g>
        </g>
    </g>
</svg>