<?xml version="1.0" encoding="UTF-8"?>
<svg width="64px" height="20px" viewBox="0 0 64 20" version="1.1" xmlns="http://www.w3.org/2000/svg" xmlns:xlink="http://www.w3.org/1999/xlink">
    <!-- Generator: Sketch 52.5 (67469) - http://www.bohemiancoding.com/sketch -->
    <title>icon_bazaar</title>
    <desc>Created with Sketch.</desc>
    <g id="Page-1" stroke="none" stroke-width="1" fill="none" fill-rule="evenodd">
        <g id="1" transform="translate(-313.000000, -1608.000000)">
            <g id="icon_bazaar" transform="translate(313.000000, 1608.000000)">
                <rect id="Rectangle-12" stroke-opacity="0.3" stroke="#FFFFFF" stroke-width="0.7" fill="#84A42B" x="0.35" y="0.35" width="63.3" height="19.3" rx="4"></rect>
                <path d="M58.0395508,6 L57.3457031,6 L57.3457031,5.54199219 L58.0412598,5.54199219 C58.0686037,5.54199219 58.0948078,5.54142253 58.119873,5.5402832 C58.1802575,5.53686522 58.2312417,5.53088383 58.2728271,5.52233887 C58.3144126,5.5137939 58.3451741,5.50297044 58.3651123,5.48986816 C58.3850506,5.47676589 58.3990071,5.4636638 58.4069824,5.45056152 C58.4149577,5.43745924 58.4189453,5.42293302 58.4189453,5.40698242 C58.417806,5.39786779 58.4158122,5.38789882 58.4129639,5.3770752 C58.4101155,5.36625157 58.406128,5.35400397 58.401001,5.34033203 C58.395874,5.32666009 58.3890381,5.31213387 58.3804932,5.29675293 C58.3719482,5.28137199 58.3619792,5.2651368 58.3505859,5.24804688 C58.3391927,5.23095695 58.3258057,5.21244313 58.3104248,5.19250488 C58.2950439,5.17256663 58.2788087,5.15234385 58.2617188,5.13183594 L57.7524414,4.54394531 L58.0549316,4.20556641 L58.6188965,4.86181641 C58.7829598,5.05208428 58.8644206,5.23950103 58.8632812,5.42407227 C58.8632812,5.5528164 58.8299564,5.66048134 58.7633057,5.74707031 C58.6966549,5.83365929 58.6026617,5.89746073 58.4813232,5.93847656 C58.3599847,5.97949239 58.2127287,6 58.0395508,6 Z M56.5493164,5.99829102 L56.5493164,3.67919922 L56.9851074,3.67919922 L56.9851074,5.99829102 L56.5493164,5.99829102 Z M55.4333496,4.16113281 C55.4333496,4.0927731 55.4572752,4.03438338 55.505127,3.98596191 C55.5529788,3.93754045 55.6110836,3.91333008 55.6794434,3.91333008 C55.7022299,3.91333008 55.7241617,3.91617836 55.7452393,3.921875 C55.7663168,3.92757164 55.78597,3.93583165 55.8041992,3.94665527 C55.8224285,3.9574789 55.8395181,3.97086581 55.8554688,3.98681641 C55.8793947,4.00960298 55.8973388,4.03580714 55.9093018,4.06542969 C55.9212647,4.09505223 55.9272461,4.1263833 55.9272461,4.15942383 C55.9272461,4.16739913 55.9269613,4.17451983 55.9263916,4.18078613 C55.9258219,4.18705244 55.9249675,4.19360348 55.9238281,4.20043945 C55.9226888,4.20727542 55.9215495,4.21382647 55.9204102,4.22009277 C55.9192708,4.22635908 55.9175619,4.23234047 55.9152832,4.23803711 C55.9130045,4.24373375 55.9107259,4.24971514 55.9084473,4.25598145 C55.9061686,4.26224775 55.9036052,4.26822914 55.9007568,4.27392578 C55.8979085,4.27962242 55.8947754,4.28503415 55.8913574,4.29016113 L55.8811035,4.30554199 C55.8776855,4.31066897 55.8736979,4.31579587 55.8691406,4.32092285 C55.8645833,4.32604983 55.8600261,4.3308919 55.8554688,4.33544922 C55.8064776,4.38444035 55.7483727,4.40893555 55.6811523,4.40893555 C55.6116533,4.40893555 55.5529788,4.38472518 55.505127,4.33630371 C55.4572752,4.28788224 55.4333496,4.22949253 55.4333496,4.16113281 Z M55.1206055,6 C55.0590817,6 55.0109458,5.97949239 54.9761963,5.93847656 C54.9414468,5.89746073 54.9240723,5.8450524 54.9240723,5.78125 L54.9240723,5.76245117 C54.9240723,5.72029601 54.9314778,5.68269873 54.9462891,5.6496582 C54.9611003,5.61661767 54.9836017,5.59041351 55.0137939,5.57104492 C55.0439862,5.55167634 55.0795896,5.54199219 55.1206055,5.54199219 L55.5187988,5.54199219 C55.6019698,5.54199219 55.6626382,5.51920596 55.7008057,5.47363281 C55.7389732,5.42805967 55.7580566,5.35001683 55.7580566,5.23950195 L55.7580566,4.68237305 L56.1989746,4.68237305 L56.1989746,5.23095703 C56.1989746,5.47819134 56.1434332,5.66817154 56.0323486,5.80090332 C55.9212641,5.9336351 55.7586274,6 55.5444336,6 L55.1206055,6 Z M55.1359863,6 L55.057373,6 C54.8716625,6 54.7087409,5.93164131 54.5686035,5.79492188 C54.4375807,5.93164131 54.2763681,6 54.0849609,6 L53.9226074,6 C53.8815916,6 53.8462729,5.99031585 53.8166504,5.97094727 C53.7858885,5.95157868 53.7631023,5.92537451 53.748291,5.89233398 C53.7334797,5.86043278 53.7260742,5.82340516 53.7260742,5.78125 L53.7260742,5.76245117 C53.7260742,5.69750944 53.7431639,5.64453146 53.7773438,5.60351562 C53.8126629,5.56249979 53.8610837,5.54199219 53.9226074,5.54199219 L54.081543,5.54199219 C54.1726893,5.54199219 54.2399086,5.51464871 54.2832031,5.45996094 C54.3264976,5.40413384 54.3481445,5.31127995 54.3481445,5.18139648 L54.3481445,3.66210938 L54.7839355,3.66210938 L54.7839355,5.18310547 C54.7839355,5.3118496 54.8072914,5.40356418 54.8540039,5.45825195 C54.9007164,5.51407906 54.974202,5.54199219 55.0744629,5.54199219 L55.1359863,5.54199219 C55.1975101,5.54199219 55.2453612,5.56249979 55.279541,5.60351562 C55.3148602,5.64339213 55.3325195,5.69637011 55.3325195,5.76245117 L55.3325195,5.78125 C55.3325195,5.87467495 55.3000492,5.9396157 55.2351074,5.97607422 C55.2043455,5.99202482 55.1713055,6 55.1359863,6 Z M53.9362793,6 L53.7414551,6 C53.7255045,6.27571752 53.6329354,6.48449636 53.4637451,6.62634277 C53.2945548,6.76818919 53.0572932,6.83854167 52.7519531,6.83740234 L52.5024414,6.83740234 L52.5024414,6.37939453 L52.7416992,6.37939453 C52.9285491,6.38053386 53.0655513,6.34977245 53.15271,6.28710938 C53.2398686,6.2244463 53.2868652,6.12874413 53.2937012,6 L53.0527344,6 C52.8579092,6 52.7100835,5.94018615 52.6092529,5.82055664 C52.5084223,5.70092714 52.4580078,5.53060006 52.4580078,5.30957031 C52.4591471,5.08740123 52.5146886,4.91678933 52.6246338,4.79772949 C52.734579,4.67866965 52.893513,4.6188558 53.1014404,4.61828613 C53.3093679,4.61771647 53.468017,4.67809998 53.5773926,4.79943848 C53.6867681,4.92077697 53.7420247,5.09480681 53.7431641,5.3215332 L53.7431641,5.54199219 L53.9362793,5.54199219 C53.997803,5.54199219 54.045939,5.56249979 54.0806885,5.60351562 C54.115438,5.64453146 54.1328125,5.69750944 54.1328125,5.76245117 L54.1328125,5.78125 C54.1328125,5.8450524 54.115438,5.89746073 54.0806885,5.93847656 C54.045939,5.97949239 53.997803,6 53.9362793,6 Z M53.095459,5.05493164 C53.0134273,5.05493164 52.9547528,5.07401511 52.9194336,5.11218262 C52.8841144,5.15035013 52.8664551,5.21557571 52.8664551,5.30786133 C52.8664551,5.36596709 52.8732909,5.4121092 52.8869629,5.44628906 C52.9006348,5.48046892 52.9205728,5.50467929 52.9467773,5.5189209 C52.9729819,5.53316251 53.0077309,5.5402832 53.0510254,5.5402832 L53.310791,5.5402832 L53.309082,5.33178711 C53.309082,5.22924753 53.2919924,5.15718608 53.2578125,5.11560059 C53.2236326,5.07401509 53.1695153,5.05379231 53.095459,5.05493164 Z M51.3762207,6 L50.682373,6 L50.682373,5.54199219 L51.3779297,5.54199219 C51.4052736,5.54199219 51.4314777,5.54142253 51.456543,5.5402832 C51.5169274,5.53686522 51.5679116,5.53088383 51.6094971,5.52233887 C51.6510826,5.5137939 51.681844,5.50297044 51.7017822,5.48986816 C51.7217205,5.47676589 51.735677,5.4636638 51.7436523,5.45056152 C51.7516276,5.43745924 51.7556152,5.42293302 51.7556152,5.40698242 C51.7544759,5.39786779 51.7524821,5.38789882 51.7496338,5.3770752 C51.7467855,5.36625157 51.7427979,5.35400397 51.7376709,5.34033203 C51.7325439,5.32666009 51.7257081,5.31213387 51.7171631,5.29675293 C51.7086181,5.28137199 51.6986491,5.2651368 51.6872559,5.24804688 C51.6758626,5.23095695 51.6624757,5.21244313 51.6470947,5.19250488 C51.6317138,5.17256663 51.6154786,5.15234385 51.5983887,5.13183594 L51.0891113,4.54394531 L51.3916016,4.20556641 L51.9555664,4.86181641 C52.1196297,5.05208428 52.2010905,5.23950103 52.1999512,5.42407227 C52.1999512,5.5528164 52.1666263,5.66048134 52.0999756,5.74707031 C52.0333249,5.83365929 51.9393317,5.89746073 51.8179932,5.93847656 C51.6966547,5.97949239 51.5493987,6 51.3762207,6 Z M48.9460449,5.99829102 L48.9460449,3.67919922 L49.3818359,3.67919922 L49.3818359,5.99829102 L48.9460449,5.99829102 Z M47.7788086,7.04418945 C47.7788086,6.97582974 47.8033038,6.91772485 47.8522949,6.86987305 C47.8750815,6.84594715 47.9012857,6.82771816 47.9309082,6.81518555 C47.9605307,6.80265293 47.9918618,6.79638672 48.0249023,6.79638672 C48.0944014,6.79638672 48.1533608,6.82059709 48.2017822,6.86901855 C48.2502037,6.91744002 48.2744141,6.97526008 48.2744141,7.04248047 C48.2744141,7.11197951 48.2502037,7.17093889 48.2017822,7.21936035 C48.1533608,7.26778182 48.0955407,7.29199219 48.0283203,7.29199219 C47.9588213,7.29199219 47.8998619,7.26778182 47.8514404,7.21936035 C47.803019,7.17093889 47.7788086,7.11254917 47.7788086,7.04418945 Z M48.0539551,6.5144043 C48.0539551,6.44604458 48.0778806,6.38765486 48.1257324,6.3392334 C48.1735842,6.29081193 48.2316891,6.26660156 48.3000488,6.26660156 C48.3137208,6.26660156 48.3271077,6.26774087 48.34021,6.27001953 C48.3533122,6.27229819 48.3658447,6.2754313 48.3778076,6.27941895 C48.3897706,6.2834066 48.4014485,6.28824867 48.4128418,6.29394531 C48.4242351,6.29964196 48.4353434,6.306193 48.446167,6.31359863 C48.4569906,6.32100427 48.4669596,6.32983393 48.4760742,6.34008789 C48.5000001,6.36287446 48.5179443,6.38907863 48.5299072,6.41870117 C48.5418702,6.44832372 48.5478516,6.47965478 48.5478516,6.51269531 C48.5478516,6.58219436 48.523926,6.64115373 48.4760742,6.6895752 C48.4282224,6.73799666 48.3701175,6.76220703 48.3017578,6.76220703 C48.2322588,6.76220703 48.1735842,6.73799666 48.1257324,6.6895752 C48.0778806,6.64115373 48.0539551,6.58276401 48.0539551,6.5144043 Z M47.5002441,6.5144043 C47.5002441,6.44604458 47.5241697,6.38765486 47.5720215,6.3392334 C47.6198733,6.29081193 47.6779782,6.26660156 47.7463379,6.26660156 C47.7691245,6.26660156 47.7910562,6.26944984 47.8121338,6.27514648 C47.8332114,6.28084313 47.8528645,6.28910314 47.8710938,6.29992676 C47.889323,6.31075038 47.9064127,6.32413729 47.9223633,6.34008789 C47.9462892,6.36287446 47.9642333,6.38907863 47.9761963,6.41870117 C47.9881592,6.44832372 47.9941406,6.47965478 47.9941406,6.51269531 C47.9941406,6.58219436 47.9702151,6.64115373 47.9223633,6.6895752 C47.8745115,6.73799666 47.8164066,6.76220703 47.7480469,6.76220703 C47.6785478,6.76220703 47.6198733,6.73799666 47.5720215,6.6895752 C47.5241697,6.64115373 47.5002441,6.58276401 47.5002441,6.5144043 Z M47.4985352,6 C47.4370114,6 47.3888755,5.97949239 47.354126,5.93847656 C47.3193765,5.89746073 47.302002,5.8450524 47.302002,5.78125 L47.302002,5.76245117 C47.302002,5.72029601 47.3094075,5.68269873 47.3242188,5.6496582 C47.33903,5.61661767 47.3615314,5.59041351 47.3917236,5.57104492 C47.4219158,5.55167634 47.4575193,5.54199219 47.4985352,5.54199219 L47.8967285,5.54199219 C47.9798995,5.54199219 48.0405678,5.51920596 48.0787354,5.47363281 C48.1169029,5.42805967 48.1359863,5.35001683 48.1359863,5.23950195 L48.1359863,4.68237305 L48.5769043,4.68237305 L48.5769043,5.23095703 C48.5769043,5.47819134 48.5213629,5.66817154 48.4102783,5.80090332 C48.2991938,5.9336351 48.1365571,6 47.9223633,6 L47.4985352,6 Z M47.513916,6 L47.4353027,6 C47.2495922,6 47.0866706,5.93164131 46.9465332,5.79492188 C46.8155104,5.93164131 46.6542978,6 46.4628906,6 L46.3005371,6 C46.2595213,6 46.2242026,5.99031585 46.1945801,5.97094727 C46.1638182,5.95157868 46.141032,5.92537451 46.1262207,5.89233398 C46.1114094,5.86043278 46.1040039,5.82340516 46.1040039,5.78125 L46.1040039,5.76245117 C46.1040039,5.69750944 46.1210936,5.64453146 46.1552734,5.60351562 C46.1905926,5.56249979 46.2390134,5.54199219 46.3005371,5.54199219 L46.4594727,5.54199219 C46.5506189,5.54199219 46.6178383,5.51464871 46.6611328,5.45996094 C46.7044273,5.40413384 46.7260742,5.31127995 46.7260742,5.18139648 L46.7260742,3.66210938 L47.1618652,3.66210938 L47.1618652,5.18310547 C47.1618652,5.3118496 47.1852211,5.40356418 47.2319336,5.45825195 C47.2786461,5.51407906 47.3521317,5.54199219 47.4523926,5.54199219 L47.513916,5.54199219 C47.5754398,5.54199219 47.6232908,5.56249979 47.6574707,5.60351562 C47.6927899,5.64339213 47.7104492,5.69637011 47.7104492,5.76245117 L47.7104492,5.78125 C47.7104492,5.87467495 47.6779788,5.9396157 47.6130371,5.97607422 C47.5822752,5.99202482 47.5492352,6 47.513916,6 Z M45.3674316,6.57250977 C45.3674316,6.50415005 45.3913572,6.44576033 45.439209,6.39733887 C45.4870608,6.3489174 45.5451657,6.32470703 45.6135254,6.32470703 C45.6477052,6.32470703 45.679606,6.33097324 45.7092285,6.34350586 C45.7388511,6.35603847 45.7656249,6.37398263 45.7895508,6.39733887 C45.8134767,6.4206951 45.8314208,6.4471841 45.8433838,6.47680664 C45.8553467,6.50642918 45.8613281,6.53776025 45.8613281,6.57080078 C45.8613281,6.60611997 45.8553467,6.63859035 45.8433838,6.66821289 C45.8314208,6.69783543 45.8134767,6.7240396 45.7895508,6.74682617 C45.7736002,6.76277677 45.7565105,6.77616368 45.7382812,6.7869873 C45.720052,6.79781093 45.7006837,6.80607094 45.6801758,6.81176758 C45.6596679,6.81746422 45.6380209,6.8203125 45.6152344,6.8203125 C45.5810545,6.8203125 45.5491538,6.81404629 45.5195312,6.80151367 C45.4899087,6.78898106 45.4631349,6.7710369 45.439209,6.74768066 C45.4152831,6.72432443 45.3973389,6.69783543 45.385376,6.66821289 C45.373413,6.63859035 45.3674316,6.60668962 45.3674316,6.57250977 Z M44.8137207,6.57250977 C44.8137207,6.50415005 44.8376462,6.44576033 44.885498,6.39733887 C44.9333498,6.3489174 44.9914547,6.32470703 45.0598145,6.32470703 C45.082601,6.32470703 45.1045328,6.32755531 45.1256104,6.33325195 C45.1466879,6.3389486 45.1663411,6.3472086 45.1845703,6.35803223 C45.2027996,6.36885585 45.2198892,6.38224276 45.2358398,6.39819336 C45.2597657,6.42097993 45.2777099,6.4471841 45.2896729,6.47680664 C45.3016358,6.50642918 45.3076172,6.53776025 45.3076172,6.57080078 C45.3076172,6.57877608 45.3073324,6.58589678 45.3067627,6.59216309 C45.306193,6.59842939 45.3053385,6.60498043 45.3041992,6.61181641 C45.3030599,6.61865238 45.3019206,6.62520342 45.3007812,6.63146973 C45.2996419,6.63773603 45.297933,6.64371742 45.2956543,6.64941406 C45.2933756,6.65511071 45.291097,6.66109209 45.2888184,6.6673584 C45.2865397,6.67362471 45.2839763,6.67960609 45.2811279,6.68530273 C45.2782796,6.69099938 45.2751465,6.69641111 45.2717285,6.70153809 L45.2614746,6.71691895 C45.2580566,6.72204592 45.254069,6.72717283 45.2495117,6.7322998 C45.2449544,6.73742678 45.2403972,6.74226886 45.2358398,6.74682617 C45.1868487,6.7958173 45.1287438,6.8203125 45.0615234,6.8203125 C44.9920244,6.8203125 44.9333498,6.79610213 44.885498,6.74768066 C44.8376462,6.6992592 44.8137207,6.64086948 44.8137207,6.57250977 Z M46.3193359,6 L46.2834473,6 C46.1569818,6 46.0430506,5.98177102 45.9416504,5.9453125 C45.8402501,5.90885398 45.7536625,5.85359738 45.6818848,5.77954102 C45.5383294,5.92651441 45.3372409,6 45.0786133,6 L44.8034668,6 C44.762451,6 44.7268475,5.99031585 44.6966553,5.97094727 C44.6664631,5.95157868 44.6439617,5.92565934 44.6291504,5.89318848 C44.6143391,5.86071761 44.6069336,5.82340516 44.6069336,5.78125 L44.6069336,5.76245117 C44.6069336,5.69750944 44.6243081,5.64453146 44.6590576,5.60351562 C44.6938071,5.56249979 44.7419431,5.54199219 44.8034668,5.54199219 L45.0871582,5.54199219 C45.2170417,5.54199219 45.3098956,5.51892113 45.3657227,5.47277832 C45.4215498,5.42663551 45.4494629,5.35343475 45.4494629,5.25317383 L45.4494629,4.75073242 L45.9006348,4.75073242 L45.9006348,5.25317383 C45.9006348,5.35229542 45.929972,5.42521135 45.9886475,5.47192383 C46.0473229,5.5186363 46.1450188,5.54199219 46.2817383,5.54199219 L46.3193359,5.54199219 C46.3808597,5.54199219 46.4289956,5.56249979 46.4637451,5.60351562 C46.4984946,5.64453146 46.5158691,5.69750944 46.5158691,5.76245117 L46.5158691,5.78125 C46.5158691,5.82340516 46.5084636,5.86071761 46.4936523,5.89318848 C46.4788411,5.92565934 46.4563397,5.95157868 46.4261475,5.97094727 C46.3959553,5.99031585 46.3603518,6 46.3193359,6 Z M44.8205566,6 L44.7949219,6 C44.5727528,6 44.3733733,5.89632265 44.1967773,5.68896484 C44.0839838,5.89860131 43.8857436,6.00284831 43.6020508,6.00170898 L42.9816895,6 C42.9201657,6 42.8720298,5.97949239 42.8372803,5.93847656 C42.8025308,5.89746073 42.7851562,5.8450524 42.7851562,5.78125 L42.7851562,5.76245117 C42.7851562,5.69750944 42.8025308,5.64453146 42.8372803,5.60351562 C42.8720298,5.56249979 42.9201657,5.54199219 42.9816895,5.54199219 L43.5712891,5.54199219 C43.6271162,5.54199219 43.6738279,5.53828943 43.7114258,5.53088379 C43.7490236,5.52347815 43.7783609,5.51236987 43.7994385,5.49755859 C43.8205161,5.48274732 43.8356119,5.4662273 43.8447266,5.44799805 C43.8538412,5.42976879 43.8583984,5.40755221 43.8583984,5.38134766 C43.8583984,5.37792967 43.857544,5.37280277 43.855835,5.3659668 C43.854126,5.35913083 43.8509929,5.35115564 43.8464355,5.34204102 L43.8310547,5.3112793 C43.825358,5.29988601 43.8179525,5.28706876 43.8088379,5.27282715 C43.7997233,5.25858554 43.7894695,5.24377449 43.7780762,5.22839355 C43.7666829,5.21301262 43.7535808,5.19620777 43.7387695,5.17797852 C43.7239583,5.15974926 43.7085776,5.14095062 43.692627,5.12158203 L43.2294922,4.59350586 C43.1759437,4.53426077 43.1298016,4.47843451 43.0910645,4.42602539 C43.0500486,4.37247695 43.032959,4.30297894 43.0397949,4.2175293 C43.0466309,4.13663697 43.0711261,4.06742379 43.1132812,4.0098877 C43.1554364,3.9523516 43.2129716,3.9104819 43.2858887,3.88427734 L44.4838867,3.46728516 L44.4838867,3.92871094 L43.5251465,4.25683594 L44.4428711,5.29931641 C44.4918622,5.35400418 44.538574,5.4001463 44.5830078,5.43774414 C44.6274416,5.47534198 44.6656086,5.50211581 44.6975098,5.51806641 C44.729411,5.53401701 44.7567544,5.54199219 44.779541,5.54199219 L44.8222656,5.54199219 C44.8632815,5.54313152 44.8986001,5.55367015 44.9282227,5.5736084 C44.9578452,5.59354665 44.9800618,5.61975081 44.994873,5.65222168 C45.0096843,5.68469255 45.0170898,5.72143534 45.0170898,5.76245117 L45.0170898,5.78295898 C45.0170898,5.84562206 44.9997153,5.89746073 44.9649658,5.93847656 C44.9302163,5.97949239 44.8820804,6 44.8205566,6 Z M42.046875,6.57250977 C42.046875,6.50415005 42.0708005,6.44576033 42.1186523,6.39733887 C42.1665041,6.3489174 42.224609,6.32470703 42.2929688,6.32470703 C42.3271486,6.32470703 42.3590493,6.33097324 42.3886719,6.34350586 C42.4182944,6.35603847 42.4450682,6.37398263 42.4689941,6.39733887 C42.49292,6.4206951 42.5108642,6.4471841 42.5228271,6.47680664 C42.5347901,6.50642918 42.5407715,6.53776025 42.5407715,6.57080078 C42.5407715,6.60611997 42.5347901,6.63859035 42.5228271,6.66821289 C42.5108642,6.69783543 42.49292,6.7240396 42.4689941,6.74682617 C42.4530435,6.76277677 42.4359539,6.77616368 42.4177246,6.7869873 C42.3994954,6.79781093 42.3801271,6.80607094 42.3596191,6.81176758 C42.3391112,6.81746422 42.3174643,6.8203125 42.2946777,6.8203125 C42.2604979,6.8203125 42.2285972,6.81404629 42.1989746,6.80151367 C42.1693521,6.78898106 42.1425782,6.7710369 42.1186523,6.74768066 C42.0947264,6.72432443 42.0767823,6.69783543 42.0648193,6.66821289 C42.0528564,6.63859035 42.046875,6.60668962 42.046875,6.57250977 Z M41.4931641,6.57250977 C41.4931641,6.50415005 41.5170896,6.44576033 41.5649414,6.39733887 C41.6127932,6.3489174 41.6708981,6.32470703 41.7392578,6.32470703 C41.7620444,6.32470703 41.7839761,6.32755531 41.8050537,6.33325195 C41.8261313,6.3389486 41.8457844,6.3472086 41.8640137,6.35803223 C41.8822429,6.36885585 41.8993326,6.38224276 41.9152832,6.39819336 C41.9392091,6.42097993 41.9571533,6.4471841 41.9691162,6.47680664 C41.9810792,6.50642918 41.9870605,6.53776025 41.9870605,6.57080078 C41.9870605,6.57877608 41.9867757,6.58589678 41.9862061,6.59216309 C41.9856364,6.59842939 41.9847819,6.60498043 41.9836426,6.61181641 C41.9825032,6.61865238 41.9813639,6.62520342 41.9802246,6.63146973 C41.9790853,6.63773603 41.9773763,6.64371742 41.9750977,6.64941406 C41.972819,6.65511071 41.9705404,6.66109209 41.9682617,6.6673584 C41.9659831,6.67362471 41.9634196,6.67960609 41.9605713,6.68530273 C41.957723,6.69099938 41.9545899,6.69641111 41.9511719,6.70153809 L41.940918,6.71691895 C41.9375,6.72204592 41.9335124,6.72717283 41.9289551,6.7322998 C41.9243978,6.73742678 41.9198405,6.74226886 41.9152832,6.74682617 C41.8662921,6.7958173 41.8081872,6.8203125 41.7409668,6.8203125 C41.6714678,6.8203125 41.6127932,6.79610213 41.5649414,6.74768066 C41.5170896,6.6992592 41.4931641,6.64086948 41.4931641,6.57250977 Z M42.9987793,6 L42.9628906,6 C42.8364251,6 42.722494,5.98177102 42.6210938,5.9453125 C42.5196935,5.90885398 42.4331058,5.85359738 42.3613281,5.77954102 C42.2177727,5.92651441 42.0166842,6 41.7580566,6 L41.4829102,6 C41.4418943,6 41.4062908,5.99031585 41.3760986,5.97094727 C41.3459064,5.95157868 41.323405,5.92565934 41.3085938,5.89318848 C41.2937825,5.86071761 41.286377,5.82340516 41.286377,5.78125 L41.286377,5.76245117 C41.286377,5.69750944 41.3037515,5.64453146 41.338501,5.60351562 C41.3732505,5.56249979 41.4213864,5.54199219 41.4829102,5.54199219 L41.7666016,5.54199219 C41.896485,5.54199219 41.9893389,5.51892113 42.045166,5.47277832 C42.1009931,5.42663551 42.1289062,5.35343475 42.1289062,5.25317383 L42.1289062,4.75073242 L42.5800781,4.75073242 L42.5800781,5.25317383 C42.5800781,5.35229542 42.6094154,5.42521135 42.6680908,5.47192383 C42.7267662,5.5186363 42.8244622,5.54199219 42.9611816,5.54199219 L42.9987793,5.54199219 C43.060303,5.54199219 43.108439,5.56249979 43.1431885,5.60351562 C43.177938,5.64453146 43.1953125,5.69750944 43.1953125,5.76245117 L43.1953125,5.78125 C43.1953125,5.82340516 43.187907,5.86071761 43.1730957,5.89318848 C43.1582844,5.92565934 43.135783,5.95157868 43.1055908,5.97094727 C43.0753986,5.99031585 43.0397951,6 42.9987793,6 Z M39.6953125,3.71337891 C39.6953125,3.69059233 39.6981608,3.66894542 39.7038574,3.6484375 C39.7095541,3.62792958 39.7178141,3.60827646 39.7286377,3.58947754 C39.7394613,3.57067862 39.7528482,3.55387377 39.7687988,3.5390625 C39.8166506,3.49007137 39.8741859,3.46557617 39.9414062,3.46557617 C40.0109053,3.46557617 40.0698647,3.48978654 40.1182861,3.53820801 C40.1667076,3.58662947 40.190918,3.64444953 40.190918,3.71166992 C40.190918,3.78116897 40.1667076,3.84012834 40.1182861,3.8885498 C40.0698647,3.93697127 40.0120446,3.96118164 39.9448242,3.96118164 C39.8753252,3.96118164 39.8163658,3.93697127 39.7679443,3.8885498 C39.7195229,3.84012834 39.6953125,3.78173862 39.6953125,3.71337891 Z M39.970459,4.24316406 C39.970459,4.17480435 39.9943845,4.11641463 40.0422363,4.06799316 C40.0900881,4.0195717 40.148193,3.99536133 40.2165527,3.99536133 C40.2507326,3.99536133 40.2826333,4.00162754 40.3122559,4.01416016 C40.3418784,4.02669277 40.3686522,4.04463693 40.3925781,4.06799316 C40.416504,4.0913494 40.4344482,4.11783839 40.4464111,4.14746094 C40.4583741,4.17708348 40.4643555,4.20841455 40.4643555,4.24145508 C40.4643555,4.27677427 40.4583741,4.30924464 40.4464111,4.33886719 C40.4344482,4.36848973 40.416504,4.3946939 40.3925781,4.41748047 C40.3766275,4.43343107 40.3595379,4.44681798 40.3413086,4.4576416 C40.3230793,4.46846522 40.303711,4.47672523 40.2832031,4.48242188 C40.2626952,4.48811852 40.2410483,4.4909668 40.2182617,4.4909668 C40.1840819,4.4909668 40.1521811,4.48470058 40.1225586,4.47216797 C40.092936,4.45963535 40.0661622,4.4416912 40.0422363,4.41833496 C40.0183104,4.39497872 40.0003663,4.36848973 39.9884033,4.33886719 C39.9764404,4.30924464 39.970459,4.27734392 39.970459,4.24316406 Z M39.416748,4.24316406 C39.416748,4.17480435 39.4406736,4.11641463 39.4885254,4.06799316 C39.5363772,4.0195717 39.5944821,3.99536133 39.6628418,3.99536133 C39.6856284,3.99536133 39.7075601,3.99820961 39.7286377,4.00390625 C39.7497153,4.00960289 39.7693684,4.0178629 39.7875977,4.02868652 C39.8058269,4.03951015 39.8229166,4.05289706 39.8388672,4.06884766 C39.8627931,4.09163423 39.8807372,4.11783839 39.8927002,4.14746094 C39.9046631,4.17708348 39.9106445,4.20841455 39.9106445,4.24145508 C39.9106445,4.24943038 39.9103597,4.25655108 39.90979,4.26281738 C39.9092204,4.26908369 39.9083659,4.27563473 39.9072266,4.2824707 C39.9060872,4.28930667 39.9049479,4.29585772 39.9038086,4.30212402 C39.9026693,4.30839033 39.9009603,4.31437172 39.8986816,4.32006836 C39.896403,4.325765 39.8941244,4.33174639 39.8918457,4.3380127 C39.889567,4.344279 39.8870036,4.35026039 39.8841553,4.35595703 C39.881307,4.36165367 39.8781738,4.3670654 39.8747559,4.37219238 L39.864502,4.38757324 C39.861084,4.39270022 39.8570964,4.39782712 39.8525391,4.4029541 C39.8479817,4.40808108 39.8434245,4.41292315 39.8388672,4.41748047 C39.7898761,4.4664716 39.7317712,4.4909668 39.6645508,4.4909668 C39.5950517,4.4909668 39.5363772,4.46675643 39.4885254,4.41833496 C39.4406736,4.36991349 39.416748,4.31152378 39.416748,4.24316406 Z M41.501709,6 L41.3991699,6 C41.149657,6 40.9747726,5.93278062 40.8745117,5.79833984 C40.8289386,5.86556023 40.7714033,5.91625959 40.7019043,5.95043945 C40.6324053,5.98461931 40.5532231,6.00113933 40.4643555,6 C40.3652339,6 40.2769372,5.98234067 40.1994629,5.94702148 C40.1219885,5.9117023 40.0581871,5.85986362 40.0080566,5.79150391 C39.9169104,5.930502 39.7722178,6 39.5739746,6 C39.3609202,6 39.2071131,5.93164131 39.1125488,5.79492188 C39.0043126,5.93164131 38.8225924,6 38.5673828,6 L38.4562988,6 C38.415283,6 38.3796795,5.99031585 38.3494873,5.97094727 C38.3192951,5.95157868 38.2967937,5.92565934 38.2819824,5.89318848 C38.2671711,5.86071761 38.2597656,5.82340516 38.2597656,5.78125 L38.2597656,5.76245117 C38.2597656,5.69750944 38.2771401,5.64453146 38.3118896,5.60351562 C38.3466392,5.56249979 38.3947751,5.54199219 38.4562988,5.54199219 L38.5639648,5.54199219 C38.6835943,5.54199219 38.7681882,5.52176941 38.817749,5.48132324 C38.8673098,5.44087708 38.8915202,5.3767908 38.8903809,5.2890625 L38.8852539,4.75585938 L39.3449707,4.75585938 L39.3432617,5.27539062 C39.3432617,5.37223356 39.3617755,5.44087708 39.3988037,5.48132324 C39.4358319,5.52176941 39.4970699,5.54199219 39.5825195,5.54199219 C39.6486006,5.54199219 39.6970213,5.52233906 39.7277832,5.48303223 C39.7585451,5.44372539 39.7739258,5.37394256 39.7739258,5.27368164 L39.7739258,4.75585938 L40.2268066,4.75585938 L40.2285156,5.27026367 C40.229655,5.36938526 40.2487384,5.43945292 40.2857666,5.48046875 C40.3227948,5.52148458 40.3828935,5.54199219 40.4660645,5.54199219 C40.4911297,5.54199219 40.5127766,5.5380046 40.5310059,5.5300293 C40.5492351,5.522054 40.5654703,5.50809743 40.5797119,5.48815918 C40.5939535,5.46822093 40.604777,5.44059262 40.6121826,5.40527344 C40.6195883,5.36995425 40.623291,5.32609076 40.623291,5.27368164 L40.625,4.75073242 L41.0744629,4.75073242 L41.0744629,5.26855469 C41.0744629,5.36425829 41.0995277,5.43375629 41.1496582,5.47705078 C41.1997887,5.52034527 41.2840977,5.54199219 41.4025879,5.54199219 L41.501709,5.54199219 C41.5632327,5.54199219 41.6113686,5.56249979 41.6461182,5.60351562 C41.6808677,5.64453146 41.6982422,5.69750944 41.6982422,5.76245117 L41.6982422,5.78125 C41.6982422,5.8450524 41.6808677,5.89746073 41.6461182,5.93847656 C41.6113686,5.97949239 41.5632327,6 41.501709,6 Z M38.4682617,6 L38.3349609,6 C38.2130528,6 38.1116541,5.97607446 38.0307617,5.92822266 C38.0159504,6.19938287 37.9182545,6.40531342 37.7376709,6.54602051 C37.5570873,6.68672759 37.3021664,6.76106767 36.9729004,6.76904297 L36.9284668,6.77075195 L36.8754883,6.77075195 C36.3878556,6.77075195 36.0642912,6.60896972 35.9047852,6.28540039 C35.8318681,6.138427 35.7954102,5.96183371 35.7954102,5.75561523 L35.7954102,5.10107422 L36.2380371,5.10107422 L36.2380371,5.75390625 C36.2380371,5.94417413 36.2893061,6.08459427 36.3918457,6.1751709 C36.4943853,6.26574752 36.6567372,6.31103516 36.8789062,6.31103516 L36.9284668,6.31103516 L36.9660645,6.30932617 C37.1870942,6.30362953 37.3477371,6.26289914 37.447998,6.18713379 C37.548259,6.11136844 37.5983887,5.99829177 37.5983887,5.84790039 L37.5983887,4.76098633 L38.0529785,4.76098633 L38.0529785,5.21557617 C38.0529785,5.27368193 38.0589599,5.32324198 38.0709229,5.36425781 C38.0828858,5.40527364 38.1016844,5.43916816 38.1273193,5.46594238 C38.1529542,5.49271661 38.1854246,5.5120849 38.2247314,5.52404785 C38.2640383,5.5360108 38.3116045,5.54199219 38.3674316,5.54199219 L38.4682617,5.54199219 C38.5297855,5.54199219 38.5779214,5.56249979 38.6126709,5.60351562 C38.6474204,5.64453146 38.6647949,5.69750944 38.6647949,5.76245117 L38.6647949,5.78125 C38.6647949,5.82340516 38.6573894,5.86071761 38.6425781,5.89318848 C38.6277669,5.92565934 38.6052655,5.95157868 38.5750732,5.97094727 C38.544881,5.99031585 38.5092775,6 38.4682617,6 Z M36.6413443,4.87681237 C36.6413443,4.80367114 36.6669433,4.74119728 36.7181422,4.68938892 C36.769341,4.63758055 36.8315101,4.61167675 36.9046514,4.61167675 C36.9290318,4.61167675 36.9524976,4.61472426 36.9750495,4.62081936 C36.9976013,4.62691446 37.0186291,4.63575223 37.0381334,4.64733292 C37.0576378,4.65891362 37.0759228,4.67323689 37.0929891,4.69030318 C37.1185885,4.71468359 37.1377878,4.74272063 37.1505875,4.77441517 C37.1633872,4.8061097 37.169787,4.83963225 37.169787,4.87498385 C37.169787,4.88351699 37.1694822,4.89113575 37.1688727,4.89784037 C37.1682632,4.90454498 37.167349,4.91155424 37.1661299,4.91886836 C37.1649109,4.92618249 37.1636919,4.93319175 37.1624729,4.93989636 C37.1612539,4.94660097 37.1594254,4.95300073 37.1569873,4.95909584 C37.1545493,4.96519094 37.1521113,4.9715907 37.1496733,4.97829531 C37.1472352,4.98499992 37.1444925,4.99139968 37.1414449,4.99749479 C37.1383974,5.00358989 37.1350451,5.00938015 37.131388,5.01486574 L37.1204169,5.03132243 C37.1167598,5.03680803 37.1124933,5.04229354 37.1076173,5.04777913 C37.1027412,5.05326472 37.0978652,5.05844548 37.0929891,5.06332156 C37.0405712,5.11573944 36.9784021,5.14194798 36.9064799,5.14194798 C36.8321196,5.14194798 36.769341,5.11604419 36.7181422,5.06423582 C36.6669433,5.01242745 36.6413443,4.94995359 36.6413443,4.87681237 Z M34.060791,5.99829102 L34.060791,3.67919922 L34.496582,3.67919922 L34.496582,5.99829102 L34.060791,5.99829102 Z M32.9448242,4.16113281 C32.9448242,4.0927731 32.9687498,4.03438338 33.0166016,3.98596191 C33.0644534,3.93754045 33.1225583,3.91333008 33.190918,3.91333008 C33.2137045,3.91333008 33.2356363,3.91617836 33.2567139,3.921875 C33.2777914,3.92757164 33.2974446,3.93583165 33.3156738,3.94665527 C33.3339031,3.9574789 33.3509928,3.97086581 33.3669434,3.98681641 C33.3908693,4.00960298 33.4088134,4.03580714 33.4207764,4.06542969 C33.4327393,4.09505223 33.4387207,4.1263833 33.4387207,4.15942383 C33.4387207,4.16739913 33.4384359,4.17451983 33.4378662,4.18078613 C33.4372965,4.18705244 33.4364421,4.19360348 33.4353027,4.20043945 C33.4341634,4.20727542 33.4330241,4.21382647 33.4318848,4.22009277 C33.4307454,4.22635908 33.4290365,4.23234047 33.4267578,4.23803711 C33.4244792,4.24373375 33.4222005,4.24971514 33.4199219,4.25598145 C33.4176432,4.26224775 33.4150798,4.26822914 33.4122314,4.27392578 C33.4093831,4.27962242 33.40625,4.28503415 33.402832,4.29016113 L33.3925781,4.30554199 C33.3891601,4.31066897 33.3851725,4.31579587 33.3806152,4.32092285 C33.3760579,4.32604983 33.3715007,4.3308919 33.3669434,4.33544922 C33.3179522,4.38444035 33.2598473,4.40893555 33.192627,4.40893555 C33.1231279,4.40893555 33.0644534,4.38472518 33.0166016,4.33630371 C32.9687498,4.28788224 32.9448242,4.22949253 32.9448242,4.16113281 Z M32.6320801,6 C32.5705563,6 32.5224204,5.97949239 32.4876709,5.93847656 C32.4529214,5.89746073 32.4355469,5.8450524 32.4355469,5.78125 L32.4355469,5.76245117 C32.4355469,5.72029601 32.4429524,5.68269873 32.4577637,5.6496582 C32.4725749,5.61661767 32.4950763,5.59041351 32.5252686,5.57104492 C32.5554608,5.55167634 32.5910642,5.54199219 32.6320801,5.54199219 L33.0302734,5.54199219 C33.1134444,5.54199219 33.1741128,5.51920596 33.2122803,5.47363281 C33.2504478,5.42805967 33.2695312,5.35001683 33.2695312,5.23950195 L33.2695312,4.68237305 L33.7104492,4.68237305 L33.7104492,5.23095703 C33.7104492,5.47819134 33.6549078,5.66817154 33.5438232,5.80090332 C33.4327387,5.9336351 33.270102,6 33.0559082,6 L32.6320801,6 Z M32.642334,6 L32.6149902,6 C32.4110504,6 32.2310392,5.91910888 32.0749512,5.75732422 C32.0157061,5.84163454 31.9296881,5.90315736 31.8168945,5.94189453 C31.704101,5.9806317 31.5656746,6 31.4016113,6 L30.6821289,6 L30.6821289,5.54199219 L31.3793945,5.54199219 C31.3999024,5.54199219 31.4204101,5.54142253 31.440918,5.5402832 C31.6494151,5.53344723 31.7525228,5.48958374 31.7502441,5.40869141 C31.7479655,5.34374968 31.6949875,5.25146544 31.5913086,5.13183594 L31.0820312,4.54394531 L31.3913574,4.20556641 L32.3603516,5.37109375 C32.4093427,5.43033884 32.4563393,5.47363268 32.5013428,5.50097656 C32.5463463,5.52832045 32.588216,5.54199219 32.6269531,5.54199219 L32.642334,5.54199219 C32.7038577,5.54199219 32.7519936,5.56249979 32.7867432,5.60351562 C32.8214927,5.64453146 32.8388672,5.69750944 32.8388672,5.76245117 L32.8388672,5.78125 C32.8388672,5.8450524 32.8214927,5.89746073 32.7867432,5.93847656 C32.7519936,5.97949239 32.7038577,6 32.642334,6 Z M29.4431152,6.3828125 C29.6322438,6.38395183 29.7695308,6.34749386 29.8549805,6.2734375 C29.9404301,6.19938114 29.9831543,6.08374102 29.9831543,5.92651367 L29.9831543,4.82421875 L30.4377441,4.82080078 L30.4377441,5.9230957 C30.4377441,6.2215998 30.3531503,6.44860762 30.18396,6.60412598 C30.0147697,6.75964433 29.7695329,6.837972 29.4482422,6.83911133 L29.2004395,6.84082031 L29.2004395,6.3828125 L29.4431152,6.3828125 Z M29.0705566,5.91455078 C29.0705566,6.21761219 28.9856779,6.44746829 28.815918,6.60412598 C28.646158,6.76078366 28.3994971,6.83854167 28.0759277,6.83740234 L27.829834,6.83740234 L27.829834,6.37939453 L28.0690918,6.37939453 C28.2559417,6.38053386 28.3929439,6.34977245 28.4801025,6.28710938 C28.5672612,6.2244463 28.6142578,6.12874413 28.6210938,6 L28.380127,6 C28.1853018,6 28.0374761,5.94018615 27.9366455,5.82055664 C27.8358149,5.70092714 27.7854004,5.53060006 27.7854004,5.30957031 C27.7865397,5.08740123 27.8420812,4.91678933 27.9520264,4.79772949 C28.0619716,4.67866965 28.2211904,4.61857097 28.4296875,4.61743164 C28.5333664,4.61743164 28.6253658,4.63309717 28.7056885,4.66442871 C28.7860111,4.69576025 28.8529457,4.74133271 28.9064941,4.80114746 C28.9600426,4.86096221 29.000773,4.93444781 29.0286865,5.02160645 C29.0566001,5.10876508 29.0705566,5.20873967 29.0705566,5.3215332 L29.0705566,5.91455078 Z M28.4228516,5.05493164 C28.3408199,5.05493164 28.2821454,5.07401511 28.2468262,5.11218262 C28.211507,5.15035013 28.1938477,5.21557571 28.1938477,5.30786133 C28.1938477,5.36596709 28.2006835,5.4121092 28.2143555,5.44628906 C28.2280274,5.48046892 28.2479654,5.50467929 28.2741699,5.5189209 C28.3003745,5.53316251 28.3351235,5.5402832 28.378418,5.5402832 L28.6381836,5.5402832 L28.6364746,5.33178711 C28.6364746,5.23038686 28.6193849,5.15889506 28.5852051,5.11730957 C28.5510252,5.07572408 28.4969079,5.05493164 28.4228516,5.05493164 Z M27.0061035,6.57250977 C27.0061035,6.50415005 27.0300291,6.44576033 27.0778809,6.39733887 C27.1257327,6.3489174 27.1838375,6.32470703 27.2521973,6.32470703 C27.2863771,6.32470703 27.3182778,6.33097324 27.3479004,6.34350586 C27.3775229,6.35603847 27.4042968,6.37398263 27.4282227,6.39733887 C27.4521486,6.4206951 27.4700927,6.4471841 27.4820557,6.47680664 C27.4940186,6.50642918 27.5,6.53776025 27.5,6.57080078 C27.5,6.60611997 27.4940186,6.63859035 27.4820557,6.66821289 C27.4700927,6.69783543 27.4521486,6.7240396 27.4282227,6.74682617 C27.4122721,6.76277677 27.3951824,6.77616368 27.3769531,6.7869873 C27.3587239,6.79781093 27.3393556,6.80607094 27.3188477,6.81176758 C27.2983397,6.81746422 27.2766928,6.8203125 27.2539062,6.8203125 C27.2197264,6.8203125 27.1878257,6.81404629 27.1582031,6.80151367 C27.1285806,6.78898106 27.1018068,6.7710369 27.0778809,6.74768066 C27.053955,6.72432443 27.0360108,6.69783543 27.0240479,6.66821289 C27.0120849,6.63859035 27.0061035,6.60668962 27.0061035,6.57250977 Z M26.4523926,6.57250977 C26.4523926,6.50415005 26.4763181,6.44576033 26.5241699,6.39733887 C26.5720217,6.3489174 26.6301266,6.32470703 26.6984863,6.32470703 C26.7212729,6.32470703 26.7432046,6.32755531 26.7642822,6.33325195 C26.7853598,6.3389486 26.8050129,6.3472086 26.8232422,6.35803223 C26.8414714,6.36885585 26.8585611,6.38224276 26.8745117,6.39819336 C26.8984376,6.42097993 26.9163818,6.4471841 26.9283447,6.47680664 C26.9403077,6.50642918 26.9462891,6.53776025 26.9462891,6.57080078 C26.9462891,6.57877608 26.9460042,6.58589678 26.9454346,6.59216309 C26.9448649,6.59842939 26.9440104,6.60498043 26.9428711,6.61181641 C26.9417318,6.61865238 26.9405925,6.62520342 26.9394531,6.63146973 C26.9383138,6.63773603 26.9366048,6.64371742 26.9343262,6.64941406 C26.9320475,6.65511071 26.9297689,6.66109209 26.9274902,6.6673584 C26.9252116,6.67362471 26.9226481,6.67960609 26.9197998,6.68530273 C26.9169515,6.69099938 26.9138184,6.69641111 26.9104004,6.70153809 L26.9001465,6.71691895 C26.8967285,6.72204592 26.8927409,6.72717283 26.8881836,6.7322998 C26.8836263,6.73742678 26.879069,6.74226886 26.8745117,6.74682617 C26.8255206,6.7958173 26.7674157,6.8203125 26.7001953,6.8203125 C26.6306963,6.8203125 26.5720217,6.79610213 26.5241699,6.74768066 C26.4763181,6.6992592 26.4523926,6.64086948 26.4523926,6.57250977 Z M26.4626465,6 C26.4011227,6 26.3529868,5.97949239 26.3182373,5.93847656 C26.2834878,5.89746073 26.2661133,5.8450524 26.2661133,5.78125 L26.2661133,5.76245117 C26.2661133,5.72029601 26.2735188,5.68269873 26.2883301,5.6496582 C26.3031414,5.61661767 26.3256428,5.59041351 26.355835,5.57104492 C26.3860272,5.55167634 26.4216307,5.54199219 26.4626465,5.54199219 L26.8608398,5.54199219 C26.9440108,5.54199219 27.0046792,5.51920596 27.0428467,5.47363281 C27.0810142,5.42805967 27.1000977,5.35001683 27.1000977,5.23950195 L27.1000977,4.68237305 L27.5410156,4.68237305 L27.5410156,5.23095703 C27.5410156,5.47819134 27.4854742,5.66817154 27.3743896,5.80090332 C27.2633051,5.9336351 27.1006684,6 26.8864746,6 L26.4626465,6 Z M26.4746094,6 L26.4472656,6 C26.2433258,6 26.0633146,5.91910888 25.9072266,5.75732422 C25.8479815,5.84163454 25.7619635,5.90315736 25.6491699,5.94189453 C25.5363764,5.9806317 25.39795,6 25.2338867,6 L24.5144043,6 L24.5144043,5.54199219 L25.2116699,5.54199219 C25.2321778,5.54199219 25.2526854,5.54142253 25.2731934,5.5402832 C25.4816905,5.53344723 25.5847982,5.48958374 25.5825195,5.40869141 C25.5802409,5.34374968 25.5272629,5.25146544 25.423584,5.13183594 L24.9143066,4.54394531 L25.2236328,4.20556641 L26.192627,5.37109375 C26.2416181,5.43033884 26.2886147,5.47363268 26.3336182,5.50097656 C26.3786216,5.52832045 26.4204913,5.54199219 26.4592285,5.54199219 L26.4746094,5.54199219 C26.5361331,5.54199219 26.584269,5.56249979 26.6190186,5.60351562 C26.6537681,5.64453146 26.6711426,5.69750944 26.6711426,5.76245117 L26.6711426,5.78125 C26.6711426,5.8450524 26.6537681,5.89746073 26.6190186,5.93847656 C26.584269,5.97949239 26.5361331,6 26.4746094,6 Z M22.7780762,5.99829102 L22.7780762,3.67919922 L23.2138672,3.67919922 L23.2138672,5.99829102 L22.7780762,5.99829102 Z M21.8671875,4.18676758 C21.8671875,4.11840786 21.891113,4.06001815 21.9389648,4.01159668 C21.9868166,3.96317521 22.0449215,3.93896484 22.1132812,3.93896484 C22.1360678,3.93896484 22.1579996,3.94181312 22.1790771,3.94750977 C22.2001547,3.95320641 22.2198079,3.96146642 22.2380371,3.97229004 C22.2562664,3.98311366 22.273356,3.99650057 22.2893066,4.01245117 C22.3132325,4.03523774 22.3311767,4.06144191 22.3431396,4.09106445 C22.3551026,4.120687 22.361084,4.15201806 22.361084,4.18505859 C22.361084,4.19303389 22.3607992,4.20015459 22.3602295,4.2064209 C22.3596598,4.21268721 22.3588053,4.21923825 22.357666,4.22607422 C22.3565267,4.23291019 22.3553874,4.23946123 22.354248,4.24572754 C22.3531087,4.25199385 22.3513998,4.25797523 22.3491211,4.26367188 C22.3468424,4.26936852 22.3445638,4.2753499 22.3422852,4.28161621 C22.3400065,4.28788252 22.337443,4.2938639 22.3345947,4.29956055 C22.3317464,4.30525719 22.3286133,4.31066892 22.3251953,4.3157959 L22.3149414,4.33117676 C22.3115234,4.33630374 22.3075358,4.34143064 22.3029785,4.34655762 C22.2984212,4.3516846 22.293864,4.35652667 22.2893066,4.36108398 C22.2403155,4.41007511 22.1822106,4.43457031 22.1149902,4.43457031 C22.0454912,4.43457031 21.9868166,4.41035994 21.9389648,4.36193848 C21.891113,4.31351701 21.8671875,4.25512729 21.8671875,4.18676758 Z M21.4279785,6.3828125 C21.6171071,6.38395183 21.7543941,6.34749386 21.8398438,6.2734375 C21.9252934,6.19938114 21.9680176,6.08374102 21.9680176,5.92651367 L21.9680176,4.82421875 L22.4226074,4.82080078 L22.4226074,5.9230957 C22.4226074,6.2215998 22.3380135,6.44860762 22.1688232,6.60412598 C21.9996329,6.75964433 21.7543961,6.837972 21.4331055,6.83911133 L21.1853027,6.84082031 L21.1853027,6.3828125 L21.4279785,6.3828125 Z" id="دانلود-اپلیکیشن-اندر" fill="#FFFFFF" fill-rule="nonzero"></path>
                <path d="M43.584246,14.2157916 L43.584246,10.5026232 C43.584246,10.292529 43.6573212,10.1144083 43.8034737,9.96825581 C43.9496262,9.8221033 44.1277469,9.74902815 44.3378411,9.74902815 C44.5388008,9.74902815 44.7123543,9.81981971 44.8585068,9.96140494 C45.0046593,10.1029902 45.0823016,10.2742601 45.0914361,10.4752198 L45.0914361,13.9691605 C45.0914361,14.0787749 45.1165557,14.1587009 45.1667956,14.2089408 C45.2170356,14.2591807 45.2969615,14.2843003 45.4065759,14.2843003 L46.5849245,14.2843003 C46.8132878,14.2934348 47.0005429,14.3710772 47.1466954,14.5172297 C47.2928479,14.6633822 47.3613559,14.8460701 47.3522213,15.0652988 C47.3522213,15.257124 47.2837134,15.4238267 47.1466954,15.5654119 C47.0096774,15.7069971 46.8452583,15.7777887 46.6534332,15.7777887 C46.3702627,15.7869232 46.0916637,15.7914904 45.8176278,15.7914904 C45.5435918,15.7914904 45.26956,15.7869232 44.995524,15.7777887 C44.6484118,15.7686542 44.340126,15.6362054 44.0706574,15.3804386 C43.8011887,15.1246717 43.6436204,14.8232367 43.5979477,14.4761245 C43.5979477,14.4304518 43.5956641,14.3870635 43.5910969,14.3459581 C43.5865296,14.3048527 43.584246,14.2614643 43.584246,14.2157916 Z M42.8169492,12.7497067 L42.8169492,15.0104919 C42.8169492,15.4489494 42.6707989,15.8143252 42.3784939,16.1066302 C42.0861889,16.3989352 41.7253803,16.5450855 41.2960573,16.5450855 L39.7751655,16.5450855 C39.6016094,16.535951 39.4486083,16.4765774 39.3161576,16.366963 C39.1837069,16.2573486 39.0992137,16.1157655 39.0626756,15.9422094 C39.035272,15.7686533 39.058108,15.6042342 39.1311842,15.4489472 C39.2042605,15.2936602 39.3230076,15.1840474 39.4874292,15.1201057 C39.5422364,15.0927021 39.5993263,15.0744333 39.6587008,15.0652988 C39.7180752,15.0561643 39.7751652,15.0515971 39.8299724,15.0515971 C40.0217975,15.0424626 40.2136198,15.0378954 40.405445,15.0378954 L40.9809176,15.0378954 C41.108801,15.0378954 41.1978614,15.0150594 41.2481013,14.9693867 C41.2983412,14.9237141 41.3234608,14.8369373 41.3234608,14.7090539 L41.3234608,12.7908119 C41.3234608,12.6081213 41.3759836,12.4482694 41.4810307,12.3112514 C41.5860778,12.1742334 41.7253773,12.0828895 41.8989334,12.0372168 C42.1364312,11.9824096 42.3488059,12.0280816 42.5360638,12.1742341 C42.7233217,12.3203866 42.8169492,12.5122089 42.8169492,12.7497067 Z M40.556164,9.73532642 L40.556164,12.5921368 C40.556164,12.9072781 40.5515968,13.2201312 40.5424623,13.5307052 C40.5424623,13.8138757 40.4214315,14.0262504 40.1793665,14.1678356 C39.9373014,14.3094208 39.6929563,14.3162716 39.446324,14.1883882 C39.3275751,14.1244465 39.2339475,14.0376697 39.1654386,13.9280553 C39.0969296,13.818441 39.0581084,13.6951266 39.0489739,13.5581087 L39.0489739,9.77643161 C39.0489739,9.60287551 39.0969294,9.44759081 39.192842,9.31057284 C39.2887546,9.17355487 39.4189197,9.08221092 39.5833413,9.03653827 C39.8208391,8.96346202 40.0400646,8.99999959 40.2410242,9.1461521 C40.4419839,9.2923046 40.5470295,9.48869408 40.556164,9.73532642 Z M42.8169492,10.5026232 C42.8169492,10.7035829 42.7438741,10.87942 42.5977216,11.0301398 C42.451569,11.1808595 42.2780156,11.2562183 42.0770559,11.2562183 C41.8669616,11.2562183 41.688841,11.1831431 41.5426885,11.0369906 C41.396536,10.8908381 41.3234608,10.7127174 41.3234608,10.5026232 C41.3234608,10.3016635 41.396536,10.1258264 41.5426885,9.97510667 C41.688841,9.8243869 41.8623944,9.74902815 42.0633541,9.74902815 C42.2734484,9.74902815 42.451569,9.8221033 42.5977216,9.96825581 C42.7438741,10.1144083 42.8169492,10.292529 42.8169492,10.5026232 Z M44.3241393,16.5450855 C44.3241393,16.7551797 44.2510642,16.9333004 44.1049117,17.0794529 C43.9587592,17.2256054 43.7852057,17.2986806 43.584246,17.2986806 C43.3741518,17.2986806 43.1960311,17.2256054 43.0498786,17.0794529 C42.9037261,16.9333004 42.8306509,16.7551797 42.8306509,16.5450855 C42.8306509,16.3441258 42.9037261,16.1705723 43.0498786,16.0244198 C43.1960311,15.8782673 43.3741518,15.8051922 43.584246,15.8051922 C43.7943402,15.8051922 43.9701773,15.8759837 44.1117626,16.0175689 C44.2533478,16.1591542 44.3241393,16.3349913 44.3241393,16.5450855 Z M38.2816771,11.2151131 C38.2725425,10.9867498 38.1720642,10.8017783 37.980239,10.6601931 C37.7884139,10.5186079 37.58289,10.4752195 37.3636613,10.5300267 C37.1901052,10.5756993 37.0508057,10.6647597 36.9457585,10.7972104 C36.8407114,10.9296611 36.7881887,11.0917966 36.7881887,11.2836217 C36.7790541,11.6033303 36.7767705,11.9253177 36.7813378,12.2495936 C36.7859051,12.5738695 36.7881887,12.9004241 36.7881887,13.2292672 C36.7881887,13.329747 36.7630691,13.4051058 36.7128292,13.4553457 C36.6625892,13.5055856 36.5826633,13.5307052 36.4730489,13.5307052 L35.2672968,13.5307052 C35.2398932,13.5307052 35.2147736,13.5329888 35.1919373,13.5375561 C35.169101,13.5421233 35.1485486,13.5444069 35.1302795,13.5444069 C34.9475889,13.5718105 34.7968714,13.6540201 34.6781225,13.7910381 C34.5593736,13.928056 34.5,14.0879079 34.5,14.2705986 C34.5,14.4167511 34.534254,14.5469162 34.602763,14.6610978 C34.6712719,14.7752795 34.7648995,14.8643398 34.8836484,14.9282815 L34.8904993,14.9282815 C34.8950665,14.9282815 34.9019173,14.9328487 34.9110519,14.9419833 C34.9201864,14.9419833 34.9293208,14.9442669 34.9384553,14.9488341 L34.9795605,14.9693867 C35.0252332,14.9876558 35.0731887,15.0013574 35.1234286,15.0104919 C35.1736686,15.0196264 35.2261913,15.0241936 35.2809985,15.0241936 C35.3723438,15.0333282 35.468255,15.0378954 35.5687348,15.0378954 L35.8564711,15.0378954 C36.0391617,15.0287608 36.2218496,15.0264772 36.4045403,15.0310445 C36.5872309,15.0356118 36.7699188,15.028761 36.9526094,15.0104919 C37.3088561,14.9830883 37.6171419,14.8323708 37.8774761,14.5583349 C38.1378102,14.2842989 38.2725425,13.9691623 38.2816771,13.6129156 L38.2816771,11.2151131 Z" id="cafebazaar-logotype" fill="#FFFFFF"></path>
                <path d="M9.11621094,7.05479601 C7.78496875,7.14988473 6.89460584,7.33573719 6.44509549,7.61235894 C5.99558514,7.88898069 5.73193398,8.10941035 5.65413411,8.27365451 L5.65413411,8.29310438 C5.65413411,8.2974266 5.64981196,8.30390982 5.64116753,8.31255425 C5.72761183,8.42493184 5.84214881,8.50705269 5.9847819,8.55891927 C6.12741499,8.61078585 6.31110637,8.62807445 6.53586155,8.61078559 C6.68281685,8.60214116 6.82976995,8.58917471 6.97672526,8.57188585 C7.12368057,8.55459699 7.26631152,8.53730839 7.4046224,8.52001953 C7.50835555,8.50273067 7.61424823,8.48760315 7.7223036,8.4746365 C7.83035897,8.46166986 7.9405738,8.44654233 8.05295139,8.42925347 L8.20206706,8.41628689 C8.301478,8.40764246 8.43762573,8.39035386 8.61051432,8.36442057 C8.67966976,8.16559869 8.75746846,7.95381333 8.84391276,7.72905816 C8.93035706,7.50430299 9.02112221,7.27955118 9.11621094,7.05479601 Z M10.8277995,4.2280816 C10.4215113,4.2280816 10.0325178,4.49173275 9.66080729,5.01904297 C9.28909681,5.54635319 8.98222416,6.10391054 8.74018012,6.69173177 C8.82662442,6.68308734 8.91738957,6.67660412 9.0124783,6.6722819 C9.10756703,6.66795969 9.20697648,6.66147646 9.31070964,6.65283203 C9.52682038,6.20332168 9.76453863,5.8121671 10.0238715,5.47935655 C10.2832044,5.14654601 10.5511777,4.98014323 10.8277995,4.98014323 C11.0957768,4.98014323 11.3572669,5.14654601 11.6122776,5.47935655 C11.8672882,5.8121671 12.0985233,6.20764383 12.3059896,6.66579861 C12.4097227,6.66579861 12.5069711,6.67012076 12.5977376,6.67876519 C12.6885041,6.68740962 12.7771082,6.69605392 12.8635525,6.70469835 C12.6301529,6.10823269 12.3319246,5.54635319 11.9688585,5.01904297 C11.6057925,4.49173275 11.2254432,4.2280816 10.8277995,4.2280816 Z M15.8588325,8.31255425 C15.789677,8.14831009 15.5411534,7.92571936 15.1132541,7.64477539 C14.6853548,7.36383142 13.8101195,7.16717359 12.4875217,7.05479601 C12.5826104,7.28819561 12.6712145,7.51726956 12.7533366,7.74202474 C12.8354587,7.96677991 12.9110963,8.17856527 12.9802517,8.37738715 C13.1358515,8.39467601 13.2590327,8.40764246 13.3497993,8.41628689 C13.4405658,8.42493132 13.4859484,8.43357562 13.4859484,8.44222005 C13.5983259,8.45086448 13.7085408,8.46166986 13.8165961,8.4746365 C13.9246515,8.48760315 14.0305442,8.50273067 14.1342773,8.52001953 C14.2725882,8.53730839 14.4152192,8.55459699 14.5621745,8.57188585 C14.7091298,8.58917471 14.8560829,8.60214116 15.0030382,8.61078559 C15.2191489,8.61943002 15.3963571,8.60430249 15.534668,8.56540256 C15.6729788,8.52650263 15.7853547,8.450865 15.871799,8.33848741 C15.871799,8.32984298 15.869638,8.32335976 15.8653158,8.31903754 L15.8588325,8.31255425 Z M9.60894097,6.63986545 C9.78182957,6.63122102 9.9611988,6.6247378 10.147054,6.62041558 C10.3329093,6.61609337 10.5295671,6.61393229 10.7370334,6.61393229 L10.75,6.61393229 C10.9833996,6.61393229 11.2038293,6.61609337 11.4112956,6.62041558 C11.6187619,6.6247378 11.8219029,6.63122102 12.0207248,6.63986545 C11.8305474,6.25086611 11.6317285,5.92022163 11.4242622,5.64792209 C11.2167958,5.37562255 11.0179769,5.23947483 10.8277995,5.23947483 C10.6289776,5.23947483 10.4236755,5.37346148 10.2118869,5.6414388 C10.0000984,5.90941613 9.79911843,6.24222168 9.60894097,6.63986545 Z M10.7370334,6.98996311 C10.4949894,6.98996311 10.2637544,6.99428526 10.0433214,7.00292969 C9.82288844,7.01157412 9.61326416,7.02021842 9.41444227,7.02886285 C9.31935355,7.24497359 9.2285884,7.46540325 9.1421441,7.69015842 C9.0556998,7.91491359 8.97357895,8.1310211 8.89577908,8.33848741 C9.1637564,8.31255412 9.46414583,8.2887823 9.79695638,8.26717122 C10.1297669,8.24556015 10.4517671,8.23475477 10.7629666,8.23475477 C11.0914549,8.23475477 11.4285826,8.24772122 11.7743598,8.27365451 C12.120137,8.2995878 12.4270097,8.3255207 12.694987,8.35145399 C12.6258315,8.13534325 12.5480328,7.91707467 12.4615885,7.69664171 C12.3751442,7.47620875 12.2887012,7.25794017 12.2022569,7.04182943 C11.9861462,7.02454057 11.7570722,7.01157412 11.5150282,7.00292969 C11.2729842,6.99428526 11.0179773,6.98996311 10.75,6.98996311 L10.7370334,6.98996311 Z M16.2218967,8.1569553 C16.2564744,8.26068845 16.2759241,8.34713145 16.2802463,8.41628689 C16.2845685,8.48544233 16.2824075,8.53298598 16.273763,8.55891927 C16.273763,8.61943028 16.2391858,8.91981971 16.1700304,9.46009657 C16.1008749,10.0003734 15.9539218,10.6638235 15.7291667,11.4504666 C15.6254335,11.8135326 15.5065744,12.1809154 15.3725857,12.5526259 C15.2385971,12.9243363 15.1002883,13.2765916 14.9576552,13.6094021 C14.8150221,13.9422127 14.6745522,14.240441 14.5362413,14.5040961 C14.3979304,14.7677512 14.2725881,14.9773755 14.1602105,15.1329753 C13.9786775,15.3750193 13.6588384,15.59761 13.2006836,15.8007541 C12.7425288,16.0038982 11.9256425,16.1054688 10.75,16.1054688 C9.57435755,16.1054688 8.75747119,16.0038982 8.29931641,15.8007541 C7.84116163,15.59761 7.52132252,15.3750193 7.3397895,15.1329753 C7.22741191,14.9773755 7.10206956,14.7677512 6.96375868,14.5040961 C6.8254478,14.240441 6.68497793,13.9422127 6.54234484,13.6094021 C6.39971174,13.2765916 6.26140294,12.9243363 6.12741428,12.5526259 C5.99342562,12.1809154 5.87456649,11.8135326 5.77083333,11.4504666 C5.54607816,10.6638235 5.39912506,10.0003734 5.32996962,9.46009657 C5.26081418,8.91981971 5.22623698,8.61943028 5.22623698,8.55891927 C5.21759255,8.53298598 5.21543147,8.48112018 5.21975369,8.40332031 C5.2240759,8.32552044 5.25216988,8.23043314 5.30403646,8.11805556 C5.42505848,7.85007823 5.71248145,7.58210493 6.16631402,7.3141276 C6.62014658,7.04615028 7.37868392,6.85165353 8.44194878,6.73063151 C8.51974865,6.54045405 8.63212455,6.28976935 8.77907986,5.97856988 C8.92603517,5.66737041 9.10108225,5.36265883 9.30422635,5.064426 C9.50737045,4.76619317 9.73860547,4.50902524 9.99793837,4.2929145 C10.2572713,4.07680375 10.5338889,3.96875 10.8277995,3.96875 C11.1217101,3.96875 11.3940055,4.07680375 11.644694,4.2929145 C11.8953825,4.50902524 12.1201343,4.76619317 12.3189562,5.064426 C12.517778,5.36265883 12.688503,5.66953148 12.8311361,5.98505317 C12.9737692,6.30057486 13.083984,6.55342063 13.1617839,6.74359809 C14.2077599,6.87326454 14.9511697,7.07424452 15.3920356,7.34654405 C15.8329015,7.61884359 16.1095191,7.88897797 16.2218967,8.1569553 Z" id="cafebazaar-icon" fill="#FFFFFF"></path>
            </g>
        </g>
    </g>
</svg>