<?xml version="1.0" encoding="UTF-8"?>
<svg width="20px" height="20px" viewBox="0 0 20 20" version="1.1" xmlns="http://www.w3.org/2000/svg" xmlns:xlink="http://www.w3.org/1999/xlink">
    <!-- Generator: Sketch 52.5 (67469) - http://www.bohemiancoding.com/sketch -->
    <title>icon_facebook</title>
    <desc>Created with Sketch.</desc>
    <defs>
        <radialGradient cx="26.6367729%" cy="100%" fx="26.6367729%" fy="100%" r="100.56509%" id="radialGradient-1">
            <stop stop-color="#FED775" offset="0%"></stop>
            <stop stop-color="#F6AF5A" offset="20%"></stop>
            <stop stop-color="#F6AF5A" offset="20%"></stop>
            <stop stop-color="#EE5A44" offset="40%"></stop>
            <stop stop-color="#EE5A44" offset="40%"></stop>
            <stop stop-color="#C32F88" offset="70%"></stop>
            <stop stop-color="#C32F88" offset="70%"></stop>
            <stop stop-color="#5C6CB3" offset="100%"></stop>
        </radialGradient>
    </defs>
    <g id="Page-1" stroke="none" stroke-width="1" fill="none" fill-rule="evenodd">
        <g id="1" transform="translate(-256.000000, -1608.000000)">
            <g id="icon_facebook" transform="translate(256.000000, 1608.000000)">
                <path d="M0,4.99525338 L0,15.0047466 C0,17.763962 2.23645112,20 4.99525338,20 L15.0047466,20 C17.763962,20 20,17.7635489 20,15.0047466 L20,4.99525338 C20,2.23603796 17.7635489,0 15.0047466,0 L4.99525338,0 C2.23603796,0 0,2.23645112 0,4.99525338 Z" id="Rectangle" fill="url(#radialGradient-1)"></path>
                <path d="M13.0052152,2.30724239 C13.0319312,2.3072891 13.0586939,2.30752263 13.0854565,2.3080364 C13.1410837,2.30911064 13.1967108,2.31116572 13.2522913,2.31424833 C13.4121668,2.32312252 13.5716219,2.34040383 13.7297225,2.36609227 C13.9014614,2.3939759 14.0716123,2.43180796 14.2390075,2.47935493 C14.4018722,2.52559411 14.5621213,2.58108114 14.7187741,2.64534894 C14.9055057,2.72194719 15.0870529,2.81115613 15.2618744,2.91204163 C15.4411797,3.01549597 15.6133389,3.13123406 15.7768575,3.25813494 C16.0345826,3.45817781 16.2706827,3.68601089 16.4798333,3.9364031 C16.6870222,4.18436658 16.8676352,4.45442212 17.0175623,4.74068473 C17.166602,5.02517249 17.2851424,5.32554039 17.3704747,5.63515612 C17.434509,5.86737959 17.4798141,6.10469405 17.506063,6.34415699 C17.5172725,6.44691074 17.5250257,6.55003814 17.529276,6.65325896 C17.5317047,6.71145494 17.5329191,6.76965093 17.5331526,6.82789363 C17.5385238,8.9702159 17.5385238,11.1125849 17.5331526,13.2549072 C17.5329658,13.3034817 17.5320784,13.3520562 17.5303969,13.400584 C17.5268006,13.5039916 17.5197012,13.6072591 17.5090522,13.7101997 C17.4840643,13.9523249 17.4396,14.1924417 17.3760328,14.4274209 C17.3359588,14.575433 17.2883184,14.7214367 17.2333919,14.8645914 C17.174075,15.019189 17.1062108,15.170564 17.0302664,15.3176887 C16.8779106,15.6130123 16.6929072,15.8913816 16.4798333,16.1463977 C16.2706827,16.3967899 16.0345826,16.624623 15.7768575,16.8246658 C15.6259496,16.9418051 15.4676621,17.049463 15.3031627,17.1466587 C15.1176922,17.256325 14.924375,17.3527267 14.7251261,17.4348363 C14.5837463,17.4931257 14.4393306,17.5442223 14.2927197,17.587846 C14.1103318,17.6420719 13.9245343,17.6847614 13.7367285,17.7155876 C13.5834853,17.7407155 13.4289343,17.7579501 13.2739163,17.7672914 C13.2135718,17.7709345 13.1531339,17.7733632 13.092696,17.7746243 C13.06598,17.775138 13.0392641,17.775465 13.0125014,17.7755584 C11.0041793,17.7801356 8.99585728,17.7801356 6.98753524,17.7755584 C6.96077256,17.775465 6.93405658,17.775138 6.90734061,17.7746243 C6.84690272,17.7733632 6.78646483,17.7709345 6.72612036,17.7672914 C6.57110231,17.7579501 6.41655133,17.7407155 6.26330813,17.7155876 C6.10315239,17.6892919 5.94439785,17.6544024 5.78802533,17.6110123 C5.61362419,17.5626713 5.44216554,17.5037747 5.27486376,17.4348363 C5.08192024,17.3553423 4.89453476,17.2623968 4.71443546,17.1570275 C4.54367741,17.0570761 4.37941153,16.945962 4.22313242,16.8246658 C3.96540733,16.624623 3.72930724,16.3967899 3.52015665,16.1464444 C3.31002523,15.8949312 3.12721697,15.6206721 2.97602884,15.3299257 C2.89858988,15.1809795 2.82946463,15.0277363 2.76907344,14.8710835 C2.71480078,14.7302175 2.66753406,14.5865958 2.62764692,14.440919 C2.56272523,14.2039315 2.51728005,13.9616661 2.49168503,13.717299 C2.48089588,13.6144052 2.47360971,13.5111844 2.46987321,13.4078234 C2.46800496,13.3568669 2.46702413,13.3058637 2.4668373,13.2549072 C2.46169961,11.1125849 2.46169961,8.9702159 2.4668373,6.82789363 C2.46702413,6.77693711 2.46800496,6.72593388 2.46987321,6.67497736 C2.47360971,6.57161643 2.48089588,6.46839562 2.49163832,6.36550175 C2.51699981,6.12346996 2.56188452,5.88349325 2.62582538,5.64865423 C2.66790771,5.49400983 2.71830375,5.34160734 2.77663986,5.19228746 C2.83936635,5.03175808 2.91129398,4.87482508 2.99200238,4.72246929 C3.14211626,4.43896235 3.3224958,4.17152236 3.52889072,3.9259409 C3.73878861,3.67620258 3.97558929,3.44911679 4.23387486,3.24982123 C4.39599225,3.12474189 4.56656348,3.01063852 4.74404723,2.90858536 C4.92106391,2.80681244 5.10494642,2.71704303 5.29406003,2.64011784 C5.45094632,2.57627039 5.61142899,2.52129714 5.77448051,2.47557172 C5.93753203,2.42979959 6.10315239,2.3932286 6.27031406,2.36609227 C6.4260327,2.34077748 6.58305911,2.32363629 6.74055259,2.31466869 C6.79851504,2.31135254 6.85652421,2.30915735 6.91458008,2.3080364 C6.93891403,2.30756934 6.96320128,2.30733581 6.98753524,2.30724239 C8.99342856,2.30243165 10.9993219,2.30560768 13.0052152,2.30724239 Z M7.00248124,3.94499705 C6.94778822,3.94499705 6.89304849,3.94649165 6.83844889,3.94948085 C6.73611549,3.95517901 6.63410904,3.96620169 6.53294331,3.98264229 C6.42645306,3.99997031 6.32089693,4.02323002 6.21702223,4.05237472 C6.11319424,4.08151942 6.01104767,4.1165024 5.911143,4.15713684 C5.79596539,4.20402991 5.68382368,4.25834928 5.57565201,4.31972129 C5.4642576,4.38282144 5.35711346,4.45339458 5.2550136,4.53069342 C5.08841241,4.65684701 4.93544944,4.80098249 4.79953425,4.95973704 C4.66048974,5.12222808 4.53938044,5.29999207 4.43933565,5.48896556 C4.33737591,5.68148872 4.25732139,5.88559503 4.20141401,6.09614681 C4.16190053,6.24485951 4.13439054,6.39674823 4.1191176,6.54985132 C4.11281226,6.61281134 4.10856199,6.6760049 4.10636679,6.73929187 C4.10524584,6.77212636 4.10463866,6.80496086 4.10459196,6.83779535 C4.10286383,8.97512006 4.09945427,11.1124448 4.10459196,13.2497228 C4.10482549,13.305817 4.10650691,13.3619112 4.10991647,13.417912 C4.11594158,13.5185639 4.12724449,13.6189357 4.14373179,13.71842 C4.16157358,13.8263114 4.18558059,13.9331753 4.21561271,14.0383111 C4.24485083,14.1405044 4.27974039,14.2410629 4.32009459,14.3394263 C4.36950981,14.459835 4.42714532,14.5768809 4.49234724,14.689583 C4.55357914,14.7952793 4.62149003,14.8971456 4.69556614,14.9942946 C4.82223349,15.1605689 4.96678933,15.3131115 5.12601094,15.4485129 C5.29891748,15.5956376 5.48901191,15.7223983 5.69139009,15.8252922 C5.86859361,15.9153886 6.05518508,15.987036 6.24714776,16.0386931 C6.39273114,16.0778329 6.54135043,16.105483 6.69118408,16.1214098 C6.76180393,16.1289295 6.83265731,16.1338337 6.90360411,16.136169 C6.93485059,16.1372433 6.96614378,16.137757 6.99743696,16.1378037 C9.00071473,16.1396253 11.0040392,16.1423809 13.0072703,16.1378037 C13.0370222,16.1377103 13.0667273,16.1371965 13.0964325,16.136169 C13.1612608,16.1340205 13.2259956,16.1297235 13.2905437,16.1232781 C13.4465893,16.1076782 13.6013738,16.0794209 13.7528421,16.0386931 C13.8585384,16.010249 13.9625999,15.9757797 14.0643728,15.9354723 C14.1637637,15.8961456 14.2609127,15.8511675 14.3553061,15.801005 C14.5454005,15.6999793 14.7240986,15.5776557 14.8872435,15.4371633 C15.0434292,15.302696 15.1853228,15.151648 15.3097016,14.9873821 C15.3905501,14.8806583 15.4639723,14.7683298 15.5293144,14.6515174 C15.5871367,14.5480631 15.638607,14.4410124 15.6832582,14.3312527 C15.7272554,14.223081 15.7646204,14.1122471 15.7951196,13.9995916 C15.8221625,13.8996402 15.8437875,13.798241 15.8599012,13.696001 C15.8754077,13.597731 15.8857765,13.4987138 15.8911477,13.3993696 C15.8939033,13.347946 15.8953045,13.2964757 15.8953979,13.2450054 C15.8968925,11.1076807 15.9007692,8.97040272 15.8953979,6.83312472 C15.8953045,6.80183154 15.8946974,6.77058506 15.8936231,6.73933857 C15.8913345,6.6730157 15.8867573,6.60673953 15.8799382,6.5407436 C15.8640113,6.38628603 15.8357074,6.23313624 15.7951196,6.08320917 C15.74052,5.88148488 15.6637817,5.68578569 15.5668195,5.50064212 C15.4669148,5.30989379 15.3456187,5.13040167 15.2061071,4.96636932 C15.0725739,4.80938962 14.9223666,4.66665532 14.7588014,4.54124904 C14.6583829,4.46423043 14.5529202,4.39379741 14.4433473,4.33055714 C14.3331206,4.26694323 14.218737,4.2106622 14.1010839,4.16218111 C13.9017417,4.07997811 13.6931983,4.02042764 13.4805447,3.98488419 C13.3795658,3.96797652 13.2776995,3.95644008 13.1755062,3.95032156 C13.1179174,3.94681859 13.0602819,3.94513717 13.0025996,3.94499705 C11.0025446,3.94340904 9.00253628,3.94499705 7.00248124,3.94499705 Z M9.91718477,5.72165609 C9.94049119,5.7217028 9.96379761,5.72193633 9.98710403,5.72240339 C10.0113913,5.72287046 10.0356785,5.72357105 10.0599658,5.72436506 C10.0957428,5.72557942 10.1315198,5.72712072 10.16725,5.72894227 C10.2777103,5.73464043 10.3880772,5.74328109 10.4980704,5.75519118 C10.7950754,5.78723167 11.0897452,5.84281211 11.3768485,5.9257157 C11.5366773,5.97190818 11.6941241,6.02655449 11.847881,6.09007499 C12.0062152,6.15551045 12.1607195,6.23033386 12.3098058,6.31468535 C12.5167145,6.43177792 12.7132077,6.56722604 12.8954088,6.71995548 C12.9949398,6.80337284 13.0901739,6.89192789 13.1805505,6.98515357 C13.2612122,7.0683374 13.3379972,7.15525773 13.4105787,7.24554091 C13.4854489,7.33857976 13.5558352,7.43516829 13.6215042,7.53488613 C13.6938989,7.64473923 13.7605954,7.75837554 13.8213602,7.87509446 C13.9328947,8.08919591 14.0243923,8.31352602 14.0960397,8.54402137 C14.1578787,8.7430367 14.2049586,8.94653583 14.2380267,9.15227686 C14.2680588,9.33896174 14.2865545,9.52746817 14.2943544,9.71639495 C14.2975771,9.7944878 14.299025,9.87267406 14.2986514,9.95086032 C14.2983711,10.0132599 14.2970634,10.0757061 14.2943544,10.138059 C14.2908514,10.2194213 14.2852,10.3006901 14.2773066,10.3817255 C14.2480218,10.6821401 14.1883779,10.9796122 14.0990289,11.2679299 C14.014257,11.5416285 13.9027692,11.8070134 13.7665271,12.059087 C13.6157126,12.3380168 13.4346325,12.6005526 13.2271633,12.8403425 C13.1125929,12.9727547 12.9900824,13.0982077 12.8603324,13.2157673 C12.7175981,13.3450969 12.5661764,13.4648985 12.4073752,13.5739108 C12.2510027,13.6812418 12.0875308,13.7781106 11.9182673,13.8636297 C11.7353657,13.9560147 11.5457383,14.0350884 11.3513469,14.10001 C11.1281377,14.1745065 10.8987166,14.2302738 10.6662596,14.2667046 C10.4459462,14.3012206 10.2229706,14.3183618 9.99999495,14.3183618 C9.85824148,14.3183618 9.71644131,14.3114492 9.57534173,14.2975775 C9.42751644,14.2830051 9.28043846,14.2608197 9.13490179,14.2310678 C8.97413888,14.1981399 8.81529092,14.1560108 8.65938546,14.1048675 C8.51370866,14.0570403 8.37060071,14.0014131 8.23090232,13.9382196 C8.00988834,13.8383149 7.79742161,13.7195409 7.59644462,13.5837659 C7.38635991,13.4418256 7.18883918,13.2812962 7.00691833,13.1046999 C6.83746806,12.9402471 6.68151589,12.7618293 6.54125702,12.571875 C6.40267958,12.3843027 6.27937508,12.1853807 6.17307165,11.9778182 C6.08148069,11.7989799 6.00245372,11.6137429 5.93687814,11.4238353 C5.87471213,11.2436893 5.82459632,11.0593865 5.78695108,10.8725615 C5.75761956,10.7268847 5.73590115,10.5796666 5.72179586,10.4317479 C5.69321164,10.1313333 5.69610743,9.82788277 5.7302964,9.52802864 C5.76266383,9.24363429 5.82333525,8.96250937 5.91104959,8.69002511 C5.96490189,8.52272332 6.02893616,8.35869097 6.10268533,8.19909571 C6.17750874,8.03707173 6.262374,7.87962496 6.3565338,7.72801647 C6.45466363,7.56991582 6.56302213,7.41812051 6.68062847,7.27389161 C6.80066353,7.12667351 6.93041349,6.98730206 7.06880411,6.85717844 C7.25492852,6.68212342 7.45669952,6.52374252 7.67117462,6.38493155 C7.88789162,6.24462597 8.11759296,6.12435738 8.35654213,6.02655449 C8.50030397,5.96775132 8.64738195,5.91707504 8.79688866,5.8748993 C8.94415346,5.83337744 9.09375358,5.8001693 9.24475489,5.77546169 C9.38917061,5.75178162 9.5348007,5.73594821 9.68089785,5.72786802 C9.73171425,5.72506565 9.78257736,5.72324411 9.83344046,5.72230998 C9.85665347,5.72188962 9.87991318,5.7217028 9.90312619,5.72165609 L9.91718477,5.72165609 Z M9.90555491,7.72334585 C9.86146421,7.72343926 9.81737351,7.72479374 9.77337622,7.72759612 C9.70116836,7.73217333 9.62924074,7.74048704 9.55792029,7.75253726 C9.40607827,7.77817899 9.25713204,7.82082179 9.11463127,7.8791579 C8.99057947,7.92992759 8.87143183,7.99246726 8.75891647,8.06528231 C8.6492502,8.13627581 8.54593597,8.21698421 8.45023487,8.30591291 C8.27971035,8.46434051 8.13351979,8.64873678 8.01726793,8.85041437 C7.92866617,9.00412464 7.85753256,9.16787675 7.80573532,9.33760726 C7.76851044,9.45960399 7.74132741,9.58463662 7.72451316,9.71111714 C7.71120187,9.81120864 7.70438276,9.91214084 7.70405582,10.0131198 C7.70354205,10.1688851 7.71853476,10.3246971 7.74926747,10.4774266 C7.76930445,10.5767708 7.79592701,10.6747138 7.82899504,10.7705083 C7.861596,10.864995 7.90050231,10.9573333 7.94524689,11.0467291 C8.00106086,11.1581702 8.06602926,11.2650341 8.13917124,11.366013 C8.21483537,11.4704015 8.29923356,11.5683912 8.39119817,11.6587211 C8.4848442,11.7506857 8.58629017,11.8347102 8.69413491,11.9094869 C8.80239999,11.9844972 8.91706384,12.0502596 9.03658513,12.1056065 C9.18744632,12.175479 9.34592062,12.2287241 9.50831826,12.2640808 C9.66721292,12.2986901 9.82979737,12.3161115 9.99242854,12.3166253 C10.0998996,12.3169522 10.2074174,12.309993 10.3139077,12.295374 C10.4349235,12.2787465 10.5545383,12.2523108 10.6712105,12.2162069 C10.8180082,12.170715 10.9599952,12.1099501 11.0943224,12.0352668 C11.2619511,11.9419945 11.4174362,11.8272372 11.556434,11.6951052 C11.6801589,11.5775456 11.790806,11.446301 11.8861334,11.3047344 C11.9593221,11.1960022 12.0234965,11.081245 12.0778626,10.9620039 C12.1262503,10.8558406 12.1668847,10.7461743 12.1993923,10.6341728 C12.2431093,10.4835918 12.2721606,10.328854 12.286406,10.1727617 C12.2900958,10.132641 12.2927581,10.092427 12.2944862,10.0521662 C12.2957473,10.0235352 12.2964478,9.99495102 12.2967748,9.96632009 C12.2971484,9.9342329 12.297055,9.90214571 12.2964946,9.87010522 C12.2939257,9.73129424 12.2821557,9.59262339 12.2593631,9.45568066 C12.23218,9.2923022 12.189257,9.13135246 12.1276048,8.97754878 C12.0941164,8.89413142 12.0552101,8.81286254 12.0105589,8.7348164 C11.9635257,8.65256669 11.9102339,8.57391337 11.8508235,8.50011749 C11.7966443,8.43276708 11.7375142,8.36943341 11.6739937,8.31077036 C11.6253724,8.26583894 11.5742758,8.22370991 11.5210307,8.18438324 C11.4830585,8.15635949 11.4439654,8.12973693 11.4040315,8.10456226 C11.3739527,8.08564623 11.3433134,8.06757091 11.3123005,8.05024289 C11.2882934,8.03688491 11.2640529,8.02399398 11.2395788,8.01161682 C11.0613478,7.92133364 10.8710198,7.85636525 10.6766751,7.8111536 C10.6429532,7.80330695 10.6090444,7.79606748 10.5750423,7.78938849 C10.5309049,7.78070112 10.486534,7.77294789 10.4420696,7.76608207 C10.3828928,7.75697435 10.3234824,7.74940794 10.263932,7.74328942 C10.1941995,7.73614336 10.1242803,7.73091226 10.0542676,7.72750271 C10.0334833,7.72647517 10.0126523,7.72563446 9.99186806,7.72493386 C9.97028977,7.72418656 9.94875819,7.72362609 9.92717991,7.72343926 C9.91998714,7.72334585 9.91279438,7.72334585 9.90555491,7.72334585 Z M14.9854668,5.94402455 C14.9854668,6.45471069 14.5714626,6.86876159 14.0607297,6.86876159 C13.5500436,6.86876159 13.1359927,6.45471069 13.1359927,5.94402455 C13.1359927,5.43329171 13.5500436,5.01928751 14.0607297,5.01928751 C14.5714626,5.01928751 14.9854668,5.43329171 14.9854668,5.94402455 Z" id="Combined-Shape" fill="#FFFFFF"></path>
            </g>
        </g>
    </g>
</svg>