<?xml version="1.0" encoding="UTF-8"?>
<svg width="20px" height="20px" viewBox="0 0 20 20" version="1.1" xmlns="http://www.w3.org/2000/svg" xmlns:xlink="http://www.w3.org/1999/xlink">
    <!-- Generator: Sketch 52.5 (67469) - http://www.bohemiancoding.com/sketch -->
    <title>icon_aparat</title>
    <desc>Created with Sketch.</desc>
    <g id="Page-1" stroke="none" stroke-width="1" fill="none" fill-rule="evenodd">
        <g id="1" transform="translate(-228.000000, -1608.000000)">
            <g id="icon_aparat" transform="translate(228.000000, 1608.000000)">
                <path d="M0,4.99525338 L0,15.0047466 C0,17.763962 2.23645112,20 4.99525338,20 L15.0047466,20 C17.763962,20 20,17.7635489 20,15.0047466 L20,4.99525338 C20,2.23603796 17.7635489,0 15.0047466,0 L4.99525338,0 C2.23603796,0 0,2.23645112 0,4.99525338 Z" id="Rectangle" fill="#EC155B"></path>
                <path d="M9.93221552,2.99188077 C13.802228,2.99188077 16.9424668,6.14564182 16.9424668,10.0323192 C16.9424668,13.9189965 13.802228,17.0727576 9.93221552,17.0727576 C6.06220301,17.0727576 2.92196428,13.9189965 2.92196428,10.0323192 C2.92196428,6.14564182 6.06220301,2.99188077 9.93221552,2.99188077 L9.93221552,2.99188077 Z M9.91010116,9.22166932 C10.4076742,9.22166932 10.8167898,9.62144184 10.8167898,10.1211575 C10.8167898,10.6208732 10.4076742,11.0206457 9.91010116,11.0206457 C9.4235853,11.0206457 9.01446969,10.6208732 9.01446969,10.1211575 C9.01446969,9.62144184 9.4235853,9.22166932 9.91010116,9.22166932 L9.91010116,9.22166932 Z M11.9888507,11.1983224 C13.0724542,11.1983224 13.9570285,12.075601 13.9570285,13.1638706 C13.9570285,14.2521403 13.0724542,15.1294189 11.9888507,15.1294189 C10.9052472,15.1294189 10.0317301,14.2521403 10.0317301,13.1638706 C10.0317301,12.075601 10.9052472,11.1983224 11.9888507,11.1983224 L11.9888507,11.1983224 Z M12.9618825,5.93465076 C14.045486,5.93465076 14.9190031,6.82303415 14.9190031,7.91130381 C14.9190031,8.99957347 14.045486,9.87685207 12.9618825,9.87685207 C11.878279,9.87685207 11.0047618,8.99957347 11.0047618,7.91130381 C11.0047618,6.82303415 11.878279,5.93465076 12.9618825,5.93465076 L12.9618825,5.93465076 Z M7.99720926,4.96853382 C9.08081277,4.96853382 9.96538705,5.84581242 9.96538705,6.93408208 C9.96538705,8.02235174 9.08081277,8.89963034 7.99720926,8.89963034 C6.91360576,8.89963034 6.04008865,8.02235174 6.04008865,6.93408208 C6.04008865,5.84581242 6.91360576,4.96853382 7.99720926,4.96853382 L7.99720926,4.96853382 Z M6.95783447,10.2322054 C8.04143798,10.2322054 8.91495509,11.1205888 8.91495509,12.2088585 C8.91495509,13.2971281 8.04143798,14.1744067 6.95783447,14.1744067 C5.87423097,14.1744067 5.00071386,13.2971281 5.00071386,12.2088585 C5.00071386,11.1205888 5.87423097,10.2322054 6.95783447,10.2322054 Z M17.5284972,8.86631596 C17.0530385,6.86745332 16.5665227,5.63482137 14.8305456,4.15788397 C16.0357781,4.31335107 17.0088098,4.52434212 17.639069,5.49045906 C18.2693282,6.4676808 17.9707844,7.68920796 17.5284972,8.86631596 Z M15.9915494,14.6852272 C15.8146345,15.9289639 15.4939764,17.1504911 14.4767159,17.6946259 C13.4594555,18.2498656 12.497481,17.9611409 11.3696487,17.5169493 C13.6031988,17.0616528 14.6204592,16.2065837 15.9915494,14.6852272 Z M2.39121971,11.3871038 C2.94407864,13.3526521 3.48588039,14.5741793 5.27714333,15.9733831 C4.07191086,15.87344 3.08782196,15.7068681 2.41333407,14.7629607 C1.74990335,13.8190534 1.99316128,12.5753166 2.39121971,11.3871038 Z M4.00556779,5.21283925 C4.23776854,3.9691025 4.60265543,2.76978492 5.64203022,2.25896447 C6.68140501,1.74814402 7.63232237,2.070183 8.73804023,2.55879387 C6.49343297,2.92525202 5.443001,3.74700666 4.00556779,5.21283925 Z" id="Combined-Shape" fill="#FFFFFF"></path>
            </g>
        </g>
    </g>
</svg>