<?xml version="1.0" encoding="UTF-8"?>
<svg width="64px" height="20px" viewBox="0 0 64 20" version="1.1" xmlns="http://www.w3.org/2000/svg" xmlns:xlink="http://www.w3.org/1999/xlink">
    <!-- Generator: Sketch 52.5 (67469) - http://www.bohemiancoding.com/sketch -->
    <title>icon_appstore</title>
    <desc>Created with Sketch.</desc>
    <g id="Page-1" stroke="none" stroke-width="1" fill="none" fill-rule="evenodd">
        <g id="1" transform="translate(-383.000000, -1581.000000)">
            <g id="icon_appstore" transform="translate(383.000000, 1581.000000)">
                <rect id="Rectangle-12" stroke-opacity="0.3" stroke="#FFFFFF" stroke-width="0.7" fill="#000000" x="0.35" y="0.35" width="63.3" height="19.3" rx="4"></rect>
                <g id="Group" transform="translate(4.500000, 3.000000)" fill="#FFFFFF" fill-rule="nonzero">
                    <path d="M9.064,6.892 C9.0495,5.2805 10.3835,4.4965 10.4445,4.46 C9.689,3.3585 8.518,3.208 8.1065,3.196 C7.123,3.0925 6.169,3.7845 5.668,3.7845 C5.157,3.7845 4.3855,3.206 3.554,3.223 C2.484,3.2395 1.483,3.859 0.934,4.821 C-0.199,6.7825 0.646,9.665 1.7315,11.2505 C2.2745,12.027 2.909,12.894 3.7395,12.8635 C4.552,12.83 4.8555,12.3455 5.836,12.3455 C6.8075,12.3455 7.0925,12.8635 7.9395,12.844 C8.8115,12.83 9.3605,12.064 9.8845,11.2805 C10.512,10.3905 10.764,9.514 10.774,9.469 C10.7535,9.462 9.0805,8.8235 9.064,6.892 Z" id="Shape"></path>
                    <path d="M7.464,2.153 C7.901,1.6065 8.2,0.863 8.117,0.1085 C7.4845,0.1365 6.6935,0.546 6.238,1.0805 C5.835,1.5515 5.475,2.3235 5.568,3.0495 C6.2785,3.1025 7.008,2.691 7.464,2.153 Z" id="Shape"></path>
                </g>
                <path d="M58.0395508,6 L57.3457031,6 L57.3457031,5.54199219 L58.0412598,5.54199219 C58.0686037,5.54199219 58.0948078,5.54142253 58.119873,5.5402832 C58.1802575,5.53686522 58.2312417,5.53088383 58.2728271,5.52233887 C58.3144126,5.5137939 58.3451741,5.50297044 58.3651123,5.48986816 C58.3850506,5.47676589 58.3990071,5.4636638 58.4069824,5.45056152 C58.4149577,5.43745924 58.4189453,5.42293302 58.4189453,5.40698242 C58.417806,5.39786779 58.4158122,5.38789882 58.4129639,5.3770752 C58.4101155,5.36625157 58.406128,5.35400397 58.401001,5.34033203 C58.395874,5.32666009 58.3890381,5.31213387 58.3804932,5.29675293 C58.3719482,5.28137199 58.3619792,5.2651368 58.3505859,5.24804688 C58.3391927,5.23095695 58.3258057,5.21244313 58.3104248,5.19250488 C58.2950439,5.17256663 58.2788087,5.15234385 58.2617188,5.13183594 L57.7524414,4.54394531 L58.0549316,4.20556641 L58.6188965,4.86181641 C58.7829598,5.05208428 58.8644206,5.23950103 58.8632812,5.42407227 C58.8632812,5.5528164 58.8299564,5.66048134 58.7633057,5.74707031 C58.6966549,5.83365929 58.6026617,5.89746073 58.4813232,5.93847656 C58.3599847,5.97949239 58.2127287,6 58.0395508,6 Z M56.5493164,5.99829102 L56.5493164,3.67919922 L56.9851074,3.67919922 L56.9851074,5.99829102 L56.5493164,5.99829102 Z M55.4333496,4.16113281 C55.4333496,4.0927731 55.4572752,4.03438338 55.505127,3.98596191 C55.5529788,3.93754045 55.6110836,3.91333008 55.6794434,3.91333008 C55.7022299,3.91333008 55.7241617,3.91617836 55.7452393,3.921875 C55.7663168,3.92757164 55.78597,3.93583165 55.8041992,3.94665527 C55.8224285,3.9574789 55.8395181,3.97086581 55.8554688,3.98681641 C55.8793947,4.00960298 55.8973388,4.03580714 55.9093018,4.06542969 C55.9212647,4.09505223 55.9272461,4.1263833 55.9272461,4.15942383 C55.9272461,4.16739913 55.9269613,4.17451983 55.9263916,4.18078613 C55.9258219,4.18705244 55.9249675,4.19360348 55.9238281,4.20043945 C55.9226888,4.20727542 55.9215495,4.21382647 55.9204102,4.22009277 C55.9192708,4.22635908 55.9175619,4.23234047 55.9152832,4.23803711 C55.9130045,4.24373375 55.9107259,4.24971514 55.9084473,4.25598145 C55.9061686,4.26224775 55.9036052,4.26822914 55.9007568,4.27392578 C55.8979085,4.27962242 55.8947754,4.28503415 55.8913574,4.29016113 L55.8811035,4.30554199 C55.8776855,4.31066897 55.8736979,4.31579587 55.8691406,4.32092285 C55.8645833,4.32604983 55.8600261,4.3308919 55.8554688,4.33544922 C55.8064776,4.38444035 55.7483727,4.40893555 55.6811523,4.40893555 C55.6116533,4.40893555 55.5529788,4.38472518 55.505127,4.33630371 C55.4572752,4.28788224 55.4333496,4.22949253 55.4333496,4.16113281 Z M55.1206055,6 C55.0590817,6 55.0109458,5.97949239 54.9761963,5.93847656 C54.9414468,5.89746073 54.9240723,5.8450524 54.9240723,5.78125 L54.9240723,5.76245117 C54.9240723,5.72029601 54.9314778,5.68269873 54.9462891,5.6496582 C54.9611003,5.61661767 54.9836017,5.59041351 55.0137939,5.57104492 C55.0439862,5.55167634 55.0795896,5.54199219 55.1206055,5.54199219 L55.5187988,5.54199219 C55.6019698,5.54199219 55.6626382,5.51920596 55.7008057,5.47363281 C55.7389732,5.42805967 55.7580566,5.35001683 55.7580566,5.23950195 L55.7580566,4.68237305 L56.1989746,4.68237305 L56.1989746,5.23095703 C56.1989746,5.47819134 56.1434332,5.66817154 56.0323486,5.80090332 C55.9212641,5.9336351 55.7586274,6 55.5444336,6 L55.1206055,6 Z M55.1359863,6 L55.057373,6 C54.8716625,6 54.7087409,5.93164131 54.5686035,5.79492188 C54.4375807,5.93164131 54.2763681,6 54.0849609,6 L53.9226074,6 C53.8815916,6 53.8462729,5.99031585 53.8166504,5.97094727 C53.7858885,5.95157868 53.7631023,5.92537451 53.748291,5.89233398 C53.7334797,5.86043278 53.7260742,5.82340516 53.7260742,5.78125 L53.7260742,5.76245117 C53.7260742,5.69750944 53.7431639,5.64453146 53.7773438,5.60351562 C53.8126629,5.56249979 53.8610837,5.54199219 53.9226074,5.54199219 L54.081543,5.54199219 C54.1726893,5.54199219 54.2399086,5.51464871 54.2832031,5.45996094 C54.3264976,5.40413384 54.3481445,5.31127995 54.3481445,5.18139648 L54.3481445,3.66210938 L54.7839355,3.66210938 L54.7839355,5.18310547 C54.7839355,5.3118496 54.8072914,5.40356418 54.8540039,5.45825195 C54.9007164,5.51407906 54.974202,5.54199219 55.0744629,5.54199219 L55.1359863,5.54199219 C55.1975101,5.54199219 55.2453612,5.56249979 55.279541,5.60351562 C55.3148602,5.64339213 55.3325195,5.69637011 55.3325195,5.76245117 L55.3325195,5.78125 C55.3325195,5.87467495 55.3000492,5.9396157 55.2351074,5.97607422 C55.2043455,5.99202482 55.1713055,6 55.1359863,6 Z M53.9362793,6 L53.7414551,6 C53.7255045,6.27571752 53.6329354,6.48449636 53.4637451,6.62634277 C53.2945548,6.76818919 53.0572932,6.83854167 52.7519531,6.83740234 L52.5024414,6.83740234 L52.5024414,6.37939453 L52.7416992,6.37939453 C52.9285491,6.38053386 53.0655513,6.34977245 53.15271,6.28710938 C53.2398686,6.2244463 53.2868652,6.12874413 53.2937012,6 L53.0527344,6 C52.8579092,6 52.7100835,5.94018615 52.6092529,5.82055664 C52.5084223,5.70092714 52.4580078,5.53060006 52.4580078,5.30957031 C52.4591471,5.08740123 52.5146886,4.91678933 52.6246338,4.79772949 C52.734579,4.67866965 52.893513,4.6188558 53.1014404,4.61828613 C53.3093679,4.61771647 53.468017,4.67809998 53.5773926,4.79943848 C53.6867681,4.92077697 53.7420247,5.09480681 53.7431641,5.3215332 L53.7431641,5.54199219 L53.9362793,5.54199219 C53.997803,5.54199219 54.045939,5.56249979 54.0806885,5.60351562 C54.115438,5.64453146 54.1328125,5.69750944 54.1328125,5.76245117 L54.1328125,5.78125 C54.1328125,5.8450524 54.115438,5.89746073 54.0806885,5.93847656 C54.045939,5.97949239 53.997803,6 53.9362793,6 Z M53.095459,5.05493164 C53.0134273,5.05493164 52.9547528,5.07401511 52.9194336,5.11218262 C52.8841144,5.15035013 52.8664551,5.21557571 52.8664551,5.30786133 C52.8664551,5.36596709 52.8732909,5.4121092 52.8869629,5.44628906 C52.9006348,5.48046892 52.9205728,5.50467929 52.9467773,5.5189209 C52.9729819,5.53316251 53.0077309,5.5402832 53.0510254,5.5402832 L53.310791,5.5402832 L53.309082,5.33178711 C53.309082,5.22924753 53.2919924,5.15718608 53.2578125,5.11560059 C53.2236326,5.07401509 53.1695153,5.05379231 53.095459,5.05493164 Z M51.3762207,6 L50.682373,6 L50.682373,5.54199219 L51.3779297,5.54199219 C51.4052736,5.54199219 51.4314777,5.54142253 51.456543,5.5402832 C51.5169274,5.53686522 51.5679116,5.53088383 51.6094971,5.52233887 C51.6510826,5.5137939 51.681844,5.50297044 51.7017822,5.48986816 C51.7217205,5.47676589 51.735677,5.4636638 51.7436523,5.45056152 C51.7516276,5.43745924 51.7556152,5.42293302 51.7556152,5.40698242 C51.7544759,5.39786779 51.7524821,5.38789882 51.7496338,5.3770752 C51.7467855,5.36625157 51.7427979,5.35400397 51.7376709,5.34033203 C51.7325439,5.32666009 51.7257081,5.31213387 51.7171631,5.29675293 C51.7086181,5.28137199 51.6986491,5.2651368 51.6872559,5.24804688 C51.6758626,5.23095695 51.6624757,5.21244313 51.6470947,5.19250488 C51.6317138,5.17256663 51.6154786,5.15234385 51.5983887,5.13183594 L51.0891113,4.54394531 L51.3916016,4.20556641 L51.9555664,4.86181641 C52.1196297,5.05208428 52.2010905,5.23950103 52.1999512,5.42407227 C52.1999512,5.5528164 52.1666263,5.66048134 52.0999756,5.74707031 C52.0333249,5.83365929 51.9393317,5.89746073 51.8179932,5.93847656 C51.6966547,5.97949239 51.5493987,6 51.3762207,6 Z M48.9460449,5.99829102 L48.9460449,3.67919922 L49.3818359,3.67919922 L49.3818359,5.99829102 L48.9460449,5.99829102 Z M47.7788086,7.04418945 C47.7788086,6.97582974 47.8033038,6.91772485 47.8522949,6.86987305 C47.8750815,6.84594715 47.9012857,6.82771816 47.9309082,6.81518555 C47.9605307,6.80265293 47.9918618,6.79638672 48.0249023,6.79638672 C48.0944014,6.79638672 48.1533608,6.82059709 48.2017822,6.86901855 C48.2502037,6.91744002 48.2744141,6.97526008 48.2744141,7.04248047 C48.2744141,7.11197951 48.2502037,7.17093889 48.2017822,7.21936035 C48.1533608,7.26778182 48.0955407,7.29199219 48.0283203,7.29199219 C47.9588213,7.29199219 47.8998619,7.26778182 47.8514404,7.21936035 C47.803019,7.17093889 47.7788086,7.11254917 47.7788086,7.04418945 Z M48.0539551,6.5144043 C48.0539551,6.44604458 48.0778806,6.38765486 48.1257324,6.3392334 C48.1735842,6.29081193 48.2316891,6.26660156 48.3000488,6.26660156 C48.3137208,6.26660156 48.3271077,6.26774087 48.34021,6.27001953 C48.3533122,6.27229819 48.3658447,6.2754313 48.3778076,6.27941895 C48.3897706,6.2834066 48.4014485,6.28824867 48.4128418,6.29394531 C48.4242351,6.29964196 48.4353434,6.306193 48.446167,6.31359863 C48.4569906,6.32100427 48.4669596,6.32983393 48.4760742,6.34008789 C48.5000001,6.36287446 48.5179443,6.38907863 48.5299072,6.41870117 C48.5418702,6.44832372 48.5478516,6.47965478 48.5478516,6.51269531 C48.5478516,6.58219436 48.523926,6.64115373 48.4760742,6.6895752 C48.4282224,6.73799666 48.3701175,6.76220703 48.3017578,6.76220703 C48.2322588,6.76220703 48.1735842,6.73799666 48.1257324,6.6895752 C48.0778806,6.64115373 48.0539551,6.58276401 48.0539551,6.5144043 Z M47.5002441,6.5144043 C47.5002441,6.44604458 47.5241697,6.38765486 47.5720215,6.3392334 C47.6198733,6.29081193 47.6779782,6.26660156 47.7463379,6.26660156 C47.7691245,6.26660156 47.7910562,6.26944984 47.8121338,6.27514648 C47.8332114,6.28084313 47.8528645,6.28910314 47.8710938,6.29992676 C47.889323,6.31075038 47.9064127,6.32413729 47.9223633,6.34008789 C47.9462892,6.36287446 47.9642333,6.38907863 47.9761963,6.41870117 C47.9881592,6.44832372 47.9941406,6.47965478 47.9941406,6.51269531 C47.9941406,6.58219436 47.9702151,6.64115373 47.9223633,6.6895752 C47.8745115,6.73799666 47.8164066,6.76220703 47.7480469,6.76220703 C47.6785478,6.76220703 47.6198733,6.73799666 47.5720215,6.6895752 C47.5241697,6.64115373 47.5002441,6.58276401 47.5002441,6.5144043 Z M47.4985352,6 C47.4370114,6 47.3888755,5.97949239 47.354126,5.93847656 C47.3193765,5.89746073 47.302002,5.8450524 47.302002,5.78125 L47.302002,5.76245117 C47.302002,5.72029601 47.3094075,5.68269873 47.3242188,5.6496582 C47.33903,5.61661767 47.3615314,5.59041351 47.3917236,5.57104492 C47.4219158,5.55167634 47.4575193,5.54199219 47.4985352,5.54199219 L47.8967285,5.54199219 C47.9798995,5.54199219 48.0405678,5.51920596 48.0787354,5.47363281 C48.1169029,5.42805967 48.1359863,5.35001683 48.1359863,5.23950195 L48.1359863,4.68237305 L48.5769043,4.68237305 L48.5769043,5.23095703 C48.5769043,5.47819134 48.5213629,5.66817154 48.4102783,5.80090332 C48.2991938,5.9336351 48.1365571,6 47.9223633,6 L47.4985352,6 Z M47.513916,6 L47.4353027,6 C47.2495922,6 47.0866706,5.93164131 46.9465332,5.79492188 C46.8155104,5.93164131 46.6542978,6 46.4628906,6 L46.3005371,6 C46.2595213,6 46.2242026,5.99031585 46.1945801,5.97094727 C46.1638182,5.95157868 46.141032,5.92537451 46.1262207,5.89233398 C46.1114094,5.86043278 46.1040039,5.82340516 46.1040039,5.78125 L46.1040039,5.76245117 C46.1040039,5.69750944 46.1210936,5.64453146 46.1552734,5.60351562 C46.1905926,5.56249979 46.2390134,5.54199219 46.3005371,5.54199219 L46.4594727,5.54199219 C46.5506189,5.54199219 46.6178383,5.51464871 46.6611328,5.45996094 C46.7044273,5.40413384 46.7260742,5.31127995 46.7260742,5.18139648 L46.7260742,3.66210938 L47.1618652,3.66210938 L47.1618652,5.18310547 C47.1618652,5.3118496 47.1852211,5.40356418 47.2319336,5.45825195 C47.2786461,5.51407906 47.3521317,5.54199219 47.4523926,5.54199219 L47.513916,5.54199219 C47.5754398,5.54199219 47.6232908,5.56249979 47.6574707,5.60351562 C47.6927899,5.64339213 47.7104492,5.69637011 47.7104492,5.76245117 L47.7104492,5.78125 C47.7104492,5.87467495 47.6779788,5.9396157 47.6130371,5.97607422 C47.5822752,5.99202482 47.5492352,6 47.513916,6 Z M45.3674316,6.57250977 C45.3674316,6.50415005 45.3913572,6.44576033 45.439209,6.39733887 C45.4870608,6.3489174 45.5451657,6.32470703 45.6135254,6.32470703 C45.6477052,6.32470703 45.679606,6.33097324 45.7092285,6.34350586 C45.7388511,6.35603847 45.7656249,6.37398263 45.7895508,6.39733887 C45.8134767,6.4206951 45.8314208,6.4471841 45.8433838,6.47680664 C45.8553467,6.50642918 45.8613281,6.53776025 45.8613281,6.57080078 C45.8613281,6.60611997 45.8553467,6.63859035 45.8433838,6.66821289 C45.8314208,6.69783543 45.8134767,6.7240396 45.7895508,6.74682617 C45.7736002,6.76277677 45.7565105,6.77616368 45.7382812,6.7869873 C45.720052,6.79781093 45.7006837,6.80607094 45.6801758,6.81176758 C45.6596679,6.81746422 45.6380209,6.8203125 45.6152344,6.8203125 C45.5810545,6.8203125 45.5491538,6.81404629 45.5195312,6.80151367 C45.4899087,6.78898106 45.4631349,6.7710369 45.439209,6.74768066 C45.4152831,6.72432443 45.3973389,6.69783543 45.385376,6.66821289 C45.373413,6.63859035 45.3674316,6.60668962 45.3674316,6.57250977 Z M44.8137207,6.57250977 C44.8137207,6.50415005 44.8376462,6.44576033 44.885498,6.39733887 C44.9333498,6.3489174 44.9914547,6.32470703 45.0598145,6.32470703 C45.082601,6.32470703 45.1045328,6.32755531 45.1256104,6.33325195 C45.1466879,6.3389486 45.1663411,6.3472086 45.1845703,6.35803223 C45.2027996,6.36885585 45.2198892,6.38224276 45.2358398,6.39819336 C45.2597657,6.42097993 45.2777099,6.4471841 45.2896729,6.47680664 C45.3016358,6.50642918 45.3076172,6.53776025 45.3076172,6.57080078 C45.3076172,6.57877608 45.3073324,6.58589678 45.3067627,6.59216309 C45.306193,6.59842939 45.3053385,6.60498043 45.3041992,6.61181641 C45.3030599,6.61865238 45.3019206,6.62520342 45.3007812,6.63146973 C45.2996419,6.63773603 45.297933,6.64371742 45.2956543,6.64941406 C45.2933756,6.65511071 45.291097,6.66109209 45.2888184,6.6673584 C45.2865397,6.67362471 45.2839763,6.67960609 45.2811279,6.68530273 C45.2782796,6.69099938 45.2751465,6.69641111 45.2717285,6.70153809 L45.2614746,6.71691895 C45.2580566,6.72204592 45.254069,6.72717283 45.2495117,6.7322998 C45.2449544,6.73742678 45.2403972,6.74226886 45.2358398,6.74682617 C45.1868487,6.7958173 45.1287438,6.8203125 45.0615234,6.8203125 C44.9920244,6.8203125 44.9333498,6.79610213 44.885498,6.74768066 C44.8376462,6.6992592 44.8137207,6.64086948 44.8137207,6.57250977 Z M46.3193359,6 L46.2834473,6 C46.1569818,6 46.0430506,5.98177102 45.9416504,5.9453125 C45.8402501,5.90885398 45.7536625,5.85359738 45.6818848,5.77954102 C45.5383294,5.92651441 45.3372409,6 45.0786133,6 L44.8034668,6 C44.762451,6 44.7268475,5.99031585 44.6966553,5.97094727 C44.6664631,5.95157868 44.6439617,5.92565934 44.6291504,5.89318848 C44.6143391,5.86071761 44.6069336,5.82340516 44.6069336,5.78125 L44.6069336,5.76245117 C44.6069336,5.69750944 44.6243081,5.64453146 44.6590576,5.60351562 C44.6938071,5.56249979 44.7419431,5.54199219 44.8034668,5.54199219 L45.0871582,5.54199219 C45.2170417,5.54199219 45.3098956,5.51892113 45.3657227,5.47277832 C45.4215498,5.42663551 45.4494629,5.35343475 45.4494629,5.25317383 L45.4494629,4.75073242 L45.9006348,4.75073242 L45.9006348,5.25317383 C45.9006348,5.35229542 45.929972,5.42521135 45.9886475,5.47192383 C46.0473229,5.5186363 46.1450188,5.54199219 46.2817383,5.54199219 L46.3193359,5.54199219 C46.3808597,5.54199219 46.4289956,5.56249979 46.4637451,5.60351562 C46.4984946,5.64453146 46.5158691,5.69750944 46.5158691,5.76245117 L46.5158691,5.78125 C46.5158691,5.82340516 46.5084636,5.86071761 46.4936523,5.89318848 C46.4788411,5.92565934 46.4563397,5.95157868 46.4261475,5.97094727 C46.3959553,5.99031585 46.3603518,6 46.3193359,6 Z M44.8205566,6 L44.7949219,6 C44.5727528,6 44.3733733,5.89632265 44.1967773,5.68896484 C44.0839838,5.89860131 43.8857436,6.00284831 43.6020508,6.00170898 L42.9816895,6 C42.9201657,6 42.8720298,5.97949239 42.8372803,5.93847656 C42.8025308,5.89746073 42.7851562,5.8450524 42.7851562,5.78125 L42.7851562,5.76245117 C42.7851562,5.69750944 42.8025308,5.64453146 42.8372803,5.60351562 C42.8720298,5.56249979 42.9201657,5.54199219 42.9816895,5.54199219 L43.5712891,5.54199219 C43.6271162,5.54199219 43.6738279,5.53828943 43.7114258,5.53088379 C43.7490236,5.52347815 43.7783609,5.51236987 43.7994385,5.49755859 C43.8205161,5.48274732 43.8356119,5.4662273 43.8447266,5.44799805 C43.8538412,5.42976879 43.8583984,5.40755221 43.8583984,5.38134766 C43.8583984,5.37792967 43.857544,5.37280277 43.855835,5.3659668 C43.854126,5.35913083 43.8509929,5.35115564 43.8464355,5.34204102 L43.8310547,5.3112793 C43.825358,5.29988601 43.8179525,5.28706876 43.8088379,5.27282715 C43.7997233,5.25858554 43.7894695,5.24377449 43.7780762,5.22839355 C43.7666829,5.21301262 43.7535808,5.19620777 43.7387695,5.17797852 C43.7239583,5.15974926 43.7085776,5.14095062 43.692627,5.12158203 L43.2294922,4.59350586 C43.1759437,4.53426077 43.1298016,4.47843451 43.0910645,4.42602539 C43.0500486,4.37247695 43.032959,4.30297894 43.0397949,4.2175293 C43.0466309,4.13663697 43.0711261,4.06742379 43.1132812,4.0098877 C43.1554364,3.9523516 43.2129716,3.9104819 43.2858887,3.88427734 L44.4838867,3.46728516 L44.4838867,3.92871094 L43.5251465,4.25683594 L44.4428711,5.29931641 C44.4918622,5.35400418 44.538574,5.4001463 44.5830078,5.43774414 C44.6274416,5.47534198 44.6656086,5.50211581 44.6975098,5.51806641 C44.729411,5.53401701 44.7567544,5.54199219 44.779541,5.54199219 L44.8222656,5.54199219 C44.8632815,5.54313152 44.8986001,5.55367015 44.9282227,5.5736084 C44.9578452,5.59354665 44.9800618,5.61975081 44.994873,5.65222168 C45.0096843,5.68469255 45.0170898,5.72143534 45.0170898,5.76245117 L45.0170898,5.78295898 C45.0170898,5.84562206 44.9997153,5.89746073 44.9649658,5.93847656 C44.9302163,5.97949239 44.8820804,6 44.8205566,6 Z M42.046875,6.57250977 C42.046875,6.50415005 42.0708005,6.44576033 42.1186523,6.39733887 C42.1665041,6.3489174 42.224609,6.32470703 42.2929688,6.32470703 C42.3271486,6.32470703 42.3590493,6.33097324 42.3886719,6.34350586 C42.4182944,6.35603847 42.4450682,6.37398263 42.4689941,6.39733887 C42.49292,6.4206951 42.5108642,6.4471841 42.5228271,6.47680664 C42.5347901,6.50642918 42.5407715,6.53776025 42.5407715,6.57080078 C42.5407715,6.60611997 42.5347901,6.63859035 42.5228271,6.66821289 C42.5108642,6.69783543 42.49292,6.7240396 42.4689941,6.74682617 C42.4530435,6.76277677 42.4359539,6.77616368 42.4177246,6.7869873 C42.3994954,6.79781093 42.3801271,6.80607094 42.3596191,6.81176758 C42.3391112,6.81746422 42.3174643,6.8203125 42.2946777,6.8203125 C42.2604979,6.8203125 42.2285972,6.81404629 42.1989746,6.80151367 C42.1693521,6.78898106 42.1425782,6.7710369 42.1186523,6.74768066 C42.0947264,6.72432443 42.0767823,6.69783543 42.0648193,6.66821289 C42.0528564,6.63859035 42.046875,6.60668962 42.046875,6.57250977 Z M41.4931641,6.57250977 C41.4931641,6.50415005 41.5170896,6.44576033 41.5649414,6.39733887 C41.6127932,6.3489174 41.6708981,6.32470703 41.7392578,6.32470703 C41.7620444,6.32470703 41.7839761,6.32755531 41.8050537,6.33325195 C41.8261313,6.3389486 41.8457844,6.3472086 41.8640137,6.35803223 C41.8822429,6.36885585 41.8993326,6.38224276 41.9152832,6.39819336 C41.9392091,6.42097993 41.9571533,6.4471841 41.9691162,6.47680664 C41.9810792,6.50642918 41.9870605,6.53776025 41.9870605,6.57080078 C41.9870605,6.57877608 41.9867757,6.58589678 41.9862061,6.59216309 C41.9856364,6.59842939 41.9847819,6.60498043 41.9836426,6.61181641 C41.9825032,6.61865238 41.9813639,6.62520342 41.9802246,6.63146973 C41.9790853,6.63773603 41.9773763,6.64371742 41.9750977,6.64941406 C41.972819,6.65511071 41.9705404,6.66109209 41.9682617,6.6673584 C41.9659831,6.67362471 41.9634196,6.67960609 41.9605713,6.68530273 C41.957723,6.69099938 41.9545899,6.69641111 41.9511719,6.70153809 L41.940918,6.71691895 C41.9375,6.72204592 41.9335124,6.72717283 41.9289551,6.7322998 C41.9243978,6.73742678 41.9198405,6.74226886 41.9152832,6.74682617 C41.8662921,6.7958173 41.8081872,6.8203125 41.7409668,6.8203125 C41.6714678,6.8203125 41.6127932,6.79610213 41.5649414,6.74768066 C41.5170896,6.6992592 41.4931641,6.64086948 41.4931641,6.57250977 Z M42.9987793,6 L42.9628906,6 C42.8364251,6 42.722494,5.98177102 42.6210938,5.9453125 C42.5196935,5.90885398 42.4331058,5.85359738 42.3613281,5.77954102 C42.2177727,5.92651441 42.0166842,6 41.7580566,6 L41.4829102,6 C41.4418943,6 41.4062908,5.99031585 41.3760986,5.97094727 C41.3459064,5.95157868 41.323405,5.92565934 41.3085938,5.89318848 C41.2937825,5.86071761 41.286377,5.82340516 41.286377,5.78125 L41.286377,5.76245117 C41.286377,5.69750944 41.3037515,5.64453146 41.338501,5.60351562 C41.3732505,5.56249979 41.4213864,5.54199219 41.4829102,5.54199219 L41.7666016,5.54199219 C41.896485,5.54199219 41.9893389,5.51892113 42.045166,5.47277832 C42.1009931,5.42663551 42.1289062,5.35343475 42.1289062,5.25317383 L42.1289062,4.75073242 L42.5800781,4.75073242 L42.5800781,5.25317383 C42.5800781,5.35229542 42.6094154,5.42521135 42.6680908,5.47192383 C42.7267662,5.5186363 42.8244622,5.54199219 42.9611816,5.54199219 L42.9987793,5.54199219 C43.060303,5.54199219 43.108439,5.56249979 43.1431885,5.60351562 C43.177938,5.64453146 43.1953125,5.69750944 43.1953125,5.76245117 L43.1953125,5.78125 C43.1953125,5.82340516 43.187907,5.86071761 43.1730957,5.89318848 C43.1582844,5.92565934 43.135783,5.95157868 43.1055908,5.97094727 C43.0753986,5.99031585 43.0397951,6 42.9987793,6 Z M39.6953125,3.71337891 C39.6953125,3.69059233 39.6981608,3.66894542 39.7038574,3.6484375 C39.7095541,3.62792958 39.7178141,3.60827646 39.7286377,3.58947754 C39.7394613,3.57067862 39.7528482,3.55387377 39.7687988,3.5390625 C39.8166506,3.49007137 39.8741859,3.46557617 39.9414062,3.46557617 C40.0109053,3.46557617 40.0698647,3.48978654 40.1182861,3.53820801 C40.1667076,3.58662947 40.190918,3.64444953 40.190918,3.71166992 C40.190918,3.78116897 40.1667076,3.84012834 40.1182861,3.8885498 C40.0698647,3.93697127 40.0120446,3.96118164 39.9448242,3.96118164 C39.8753252,3.96118164 39.8163658,3.93697127 39.7679443,3.8885498 C39.7195229,3.84012834 39.6953125,3.78173862 39.6953125,3.71337891 Z M39.970459,4.24316406 C39.970459,4.17480435 39.9943845,4.11641463 40.0422363,4.06799316 C40.0900881,4.0195717 40.148193,3.99536133 40.2165527,3.99536133 C40.2507326,3.99536133 40.2826333,4.00162754 40.3122559,4.01416016 C40.3418784,4.02669277 40.3686522,4.04463693 40.3925781,4.06799316 C40.416504,4.0913494 40.4344482,4.11783839 40.4464111,4.14746094 C40.4583741,4.17708348 40.4643555,4.20841455 40.4643555,4.24145508 C40.4643555,4.27677427 40.4583741,4.30924464 40.4464111,4.33886719 C40.4344482,4.36848973 40.416504,4.3946939 40.3925781,4.41748047 C40.3766275,4.43343107 40.3595379,4.44681798 40.3413086,4.4576416 C40.3230793,4.46846522 40.303711,4.47672523 40.2832031,4.48242188 C40.2626952,4.48811852 40.2410483,4.4909668 40.2182617,4.4909668 C40.1840819,4.4909668 40.1521811,4.48470058 40.1225586,4.47216797 C40.092936,4.45963535 40.0661622,4.4416912 40.0422363,4.41833496 C40.0183104,4.39497872 40.0003663,4.36848973 39.9884033,4.33886719 C39.9764404,4.30924464 39.970459,4.27734392 39.970459,4.24316406 Z M39.416748,4.24316406 C39.416748,4.17480435 39.4406736,4.11641463 39.4885254,4.06799316 C39.5363772,4.0195717 39.5944821,3.99536133 39.6628418,3.99536133 C39.6856284,3.99536133 39.7075601,3.99820961 39.7286377,4.00390625 C39.7497153,4.00960289 39.7693684,4.0178629 39.7875977,4.02868652 C39.8058269,4.03951015 39.8229166,4.05289706 39.8388672,4.06884766 C39.8627931,4.09163423 39.8807372,4.11783839 39.8927002,4.14746094 C39.9046631,4.17708348 39.9106445,4.20841455 39.9106445,4.24145508 C39.9106445,4.24943038 39.9103597,4.25655108 39.90979,4.26281738 C39.9092204,4.26908369 39.9083659,4.27563473 39.9072266,4.2824707 C39.9060872,4.28930667 39.9049479,4.29585772 39.9038086,4.30212402 C39.9026693,4.30839033 39.9009603,4.31437172 39.8986816,4.32006836 C39.896403,4.325765 39.8941244,4.33174639 39.8918457,4.3380127 C39.889567,4.344279 39.8870036,4.35026039 39.8841553,4.35595703 C39.881307,4.36165367 39.8781738,4.3670654 39.8747559,4.37219238 L39.864502,4.38757324 C39.861084,4.39270022 39.8570964,4.39782712 39.8525391,4.4029541 C39.8479817,4.40808108 39.8434245,4.41292315 39.8388672,4.41748047 C39.7898761,4.4664716 39.7317712,4.4909668 39.6645508,4.4909668 C39.5950517,4.4909668 39.5363772,4.46675643 39.4885254,4.41833496 C39.4406736,4.36991349 39.416748,4.31152378 39.416748,4.24316406 Z M41.501709,6 L41.3991699,6 C41.149657,6 40.9747726,5.93278062 40.8745117,5.79833984 C40.8289386,5.86556023 40.7714033,5.91625959 40.7019043,5.95043945 C40.6324053,5.98461931 40.5532231,6.00113933 40.4643555,6 C40.3652339,6 40.2769372,5.98234067 40.1994629,5.94702148 C40.1219885,5.9117023 40.0581871,5.85986362 40.0080566,5.79150391 C39.9169104,5.930502 39.7722178,6 39.5739746,6 C39.3609202,6 39.2071131,5.93164131 39.1125488,5.79492188 C39.0043126,5.93164131 38.8225924,6 38.5673828,6 L38.4562988,6 C38.415283,6 38.3796795,5.99031585 38.3494873,5.97094727 C38.3192951,5.95157868 38.2967937,5.92565934 38.2819824,5.89318848 C38.2671711,5.86071761 38.2597656,5.82340516 38.2597656,5.78125 L38.2597656,5.76245117 C38.2597656,5.69750944 38.2771401,5.64453146 38.3118896,5.60351562 C38.3466392,5.56249979 38.3947751,5.54199219 38.4562988,5.54199219 L38.5639648,5.54199219 C38.6835943,5.54199219 38.7681882,5.52176941 38.817749,5.48132324 C38.8673098,5.44087708 38.8915202,5.3767908 38.8903809,5.2890625 L38.8852539,4.75585938 L39.3449707,4.75585938 L39.3432617,5.27539062 C39.3432617,5.37223356 39.3617755,5.44087708 39.3988037,5.48132324 C39.4358319,5.52176941 39.4970699,5.54199219 39.5825195,5.54199219 C39.6486006,5.54199219 39.6970213,5.52233906 39.7277832,5.48303223 C39.7585451,5.44372539 39.7739258,5.37394256 39.7739258,5.27368164 L39.7739258,4.75585938 L40.2268066,4.75585938 L40.2285156,5.27026367 C40.229655,5.36938526 40.2487384,5.43945292 40.2857666,5.48046875 C40.3227948,5.52148458 40.3828935,5.54199219 40.4660645,5.54199219 C40.4911297,5.54199219 40.5127766,5.5380046 40.5310059,5.5300293 C40.5492351,5.522054 40.5654703,5.50809743 40.5797119,5.48815918 C40.5939535,5.46822093 40.604777,5.44059262 40.6121826,5.40527344 C40.6195883,5.36995425 40.623291,5.32609076 40.623291,5.27368164 L40.625,4.75073242 L41.0744629,4.75073242 L41.0744629,5.26855469 C41.0744629,5.36425829 41.0995277,5.43375629 41.1496582,5.47705078 C41.1997887,5.52034527 41.2840977,5.54199219 41.4025879,5.54199219 L41.501709,5.54199219 C41.5632327,5.54199219 41.6113686,5.56249979 41.6461182,5.60351562 C41.6808677,5.64453146 41.6982422,5.69750944 41.6982422,5.76245117 L41.6982422,5.78125 C41.6982422,5.8450524 41.6808677,5.89746073 41.6461182,5.93847656 C41.6113686,5.97949239 41.5632327,6 41.501709,6 Z M38.4682617,6 L38.3349609,6 C38.2130528,6 38.1116541,5.97607446 38.0307617,5.92822266 C38.0159504,6.19938287 37.9182545,6.40531342 37.7376709,6.54602051 C37.5570873,6.68672759 37.3021664,6.76106767 36.9729004,6.76904297 L36.9284668,6.77075195 L36.8754883,6.77075195 C36.3878556,6.77075195 36.0642912,6.60896972 35.9047852,6.28540039 C35.8318681,6.138427 35.7954102,5.96183371 35.7954102,5.75561523 L35.7954102,5.10107422 L36.2380371,5.10107422 L36.2380371,5.75390625 C36.2380371,5.94417413 36.2893061,6.08459427 36.3918457,6.1751709 C36.4943853,6.26574752 36.6567372,6.31103516 36.8789062,6.31103516 L36.9284668,6.31103516 L36.9660645,6.30932617 C37.1870942,6.30362953 37.3477371,6.26289914 37.447998,6.18713379 C37.548259,6.11136844 37.5983887,5.99829177 37.5983887,5.84790039 L37.5983887,4.76098633 L38.0529785,4.76098633 L38.0529785,5.21557617 C38.0529785,5.27368193 38.0589599,5.32324198 38.0709229,5.36425781 C38.0828858,5.40527364 38.1016844,5.43916816 38.1273193,5.46594238 C38.1529542,5.49271661 38.1854246,5.5120849 38.2247314,5.52404785 C38.2640383,5.5360108 38.3116045,5.54199219 38.3674316,5.54199219 L38.4682617,5.54199219 C38.5297855,5.54199219 38.5779214,5.56249979 38.6126709,5.60351562 C38.6474204,5.64453146 38.6647949,5.69750944 38.6647949,5.76245117 L38.6647949,5.78125 C38.6647949,5.82340516 38.6573894,5.86071761 38.6425781,5.89318848 C38.6277669,5.92565934 38.6052655,5.95157868 38.5750732,5.97094727 C38.544881,5.99031585 38.5092775,6 38.4682617,6 Z M36.6413443,4.87681237 C36.6413443,4.80367114 36.6669433,4.74119728 36.7181422,4.68938892 C36.769341,4.63758055 36.8315101,4.61167675 36.9046514,4.61167675 C36.9290318,4.61167675 36.9524976,4.61472426 36.9750495,4.62081936 C36.9976013,4.62691446 37.0186291,4.63575223 37.0381334,4.64733292 C37.0576378,4.65891362 37.0759228,4.67323689 37.0929891,4.69030318 C37.1185885,4.71468359 37.1377878,4.74272063 37.1505875,4.77441517 C37.1633872,4.8061097 37.169787,4.83963225 37.169787,4.87498385 C37.169787,4.88351699 37.1694822,4.89113575 37.1688727,4.89784037 C37.1682632,4.90454498 37.167349,4.91155424 37.1661299,4.91886836 C37.1649109,4.92618249 37.1636919,4.93319175 37.1624729,4.93989636 C37.1612539,4.94660097 37.1594254,4.95300073 37.1569873,4.95909584 C37.1545493,4.96519094 37.1521113,4.9715907 37.1496733,4.97829531 C37.1472352,4.98499992 37.1444925,4.99139968 37.1414449,4.99749479 C37.1383974,5.00358989 37.1350451,5.00938015 37.131388,5.01486574 L37.1204169,5.03132243 C37.1167598,5.03680803 37.1124933,5.04229354 37.1076173,5.04777913 C37.1027412,5.05326472 37.0978652,5.05844548 37.0929891,5.06332156 C37.0405712,5.11573944 36.9784021,5.14194798 36.9064799,5.14194798 C36.8321196,5.14194798 36.769341,5.11604419 36.7181422,5.06423582 C36.6669433,5.01242745 36.6413443,4.94995359 36.6413443,4.87681237 Z M30.7385254,6 L30.2429199,6 L30.2429199,4.15087891 L30.7385254,4.15087891 L30.7385254,6 Z M30.2138672,3.67236328 C30.2138672,3.59830692 30.2386472,3.53735375 30.288208,3.48950195 C30.3377688,3.44165015 30.405273,3.41772461 30.4907227,3.41772461 C30.5328778,3.41772461 30.5710448,3.42399082 30.6052246,3.43652344 C30.6394045,3.44905605 30.6684569,3.46671538 30.6923828,3.48950195 C30.7163087,3.51228853 30.7348225,3.53934717 30.7479248,3.57067871 C30.7610271,3.60201025 30.7675781,3.63590477 30.7675781,3.67236328 C30.7675781,3.70996113 30.7610271,3.7444253 30.7479248,3.77575684 C30.7348225,3.80708837 30.7163087,3.83414702 30.6923828,3.85693359 C30.6684569,3.87972017 30.6394045,3.89737949 30.6052246,3.90991211 C30.5710448,3.92244472 30.5328778,3.92871094 30.4907227,3.92871094 C30.4485675,3.92871094 30.4104006,3.92244472 30.3762207,3.90991211 C30.3420408,3.89737949 30.3129884,3.87972017 30.2890625,3.85693359 C30.2651366,3.83414702 30.2466228,3.80708837 30.2335205,3.77575684 C30.2204182,3.7444253 30.2138672,3.70996113 30.2138672,3.67236328 Z M31.0683594,5.05834961 C31.0683594,4.92390883 31.0877277,4.79915422 31.1264648,4.68408203 C31.165202,4.56900984 31.2215979,4.46960491 31.2956543,4.38586426 C31.3697107,4.3021236 31.4611404,4.23632836 31.5699463,4.18847656 C31.6787522,4.14062476 31.8026523,4.11669922 31.9416504,4.11669922 C32.0817878,4.11669922 32.2065424,4.14062476 32.315918,4.18847656 C32.4252935,4.23632836 32.5172929,4.3021236 32.5919189,4.38586426 C32.666545,4.46960491 32.7232257,4.56900984 32.7619629,4.68408203 C32.8007001,4.79915422 32.8200684,4.92390883 32.8200684,5.05834961 L32.8200684,5.09423828 C32.8200684,5.22981839 32.8007001,5.35485783 32.7619629,5.46936035 C32.7232257,5.58386288 32.666545,5.68298298 32.5919189,5.76672363 C32.5172929,5.85046429 32.4258632,5.9159747 32.317627,5.96325684 C32.2093907,6.01053897 32.0852058,6.03417969 31.9450684,6.03417969 C31.8049309,6.03417969 31.6804612,6.01053897 31.5716553,5.96325684 C31.4628494,5.9159747 31.3711348,5.85046429 31.2965088,5.76672363 C31.2218828,5.68298298 31.165202,5.58386288 31.1264648,5.46936035 C31.0877277,5.35485783 31.0683594,5.22981839 31.0683594,5.09423828 L31.0683594,5.05834961 Z M31.5622559,5.09423828 C31.5622559,5.16943397 31.5690917,5.24007128 31.5827637,5.30615234 C31.5964356,5.3722334 31.6183674,5.42948381 31.6485596,5.47790527 C31.6787518,5.52632674 31.718058,5.5647785 31.7664795,5.59326172 C31.814901,5.62174493 31.87443,5.63598633 31.9450684,5.63598633 C32.0134281,5.63598633 32.0718178,5.62174493 32.1202393,5.59326172 C32.1686607,5.5647785 32.2082518,5.52632674 32.2390137,5.47790527 C32.2697755,5.42948381 32.2919921,5.3722334 32.3056641,5.30615234 C32.319336,5.24007128 32.3261719,5.16943397 32.3261719,5.09423828 L32.3261719,5.05834961 C32.3261719,4.98543258 32.319336,4.9162194 32.3056641,4.85070801 C32.2919921,4.78519661 32.2697755,4.72766138 32.2390137,4.67810059 C32.2082518,4.62853979 32.1683759,4.58923354 32.1193848,4.56018066 C32.0703936,4.53112778 32.0111494,4.51660156 31.9416504,4.51660156 C31.8732907,4.51660156 31.814901,4.53112778 31.7664795,4.56018066 C31.718058,4.58923354 31.6787518,4.62853979 31.6485596,4.67810059 C31.6183674,4.72766138 31.5964356,4.78519661 31.5827637,4.85070801 C31.5690917,4.9162194 31.5622559,4.98543258 31.5622559,5.05834961 L31.5622559,5.09423828 Z M34.1257324,5.48901367 C34.1257324,5.46280911 34.1206055,5.43888357 34.1103516,5.41723633 C34.1000976,5.39558908 34.0807293,5.3753663 34.0522461,5.35656738 C34.0237629,5.33776846 33.9850263,5.3198243 33.9360352,5.30273438 C33.887044,5.28564445 33.8238122,5.26912443 33.7463379,5.25317383 C33.6517736,5.23266591 33.5643315,5.2070314 33.4840088,5.17626953 C33.4036861,5.14550766 33.3341881,5.10734072 33.2755127,5.06176758 C33.2168373,5.01619443 33.17098,4.96321645 33.1379395,4.90283203 C33.1048989,4.84244761 33.0883789,4.77237996 33.0883789,4.69262695 C33.0883789,4.61515261 33.1051838,4.54166701 33.1387939,4.47216797 C33.1724041,4.40266892 33.2208249,4.34143093 33.2840576,4.28845215 C33.3472904,4.23547337 33.4247635,4.19360367 33.5164795,4.1628418 C33.6081954,4.13207992 33.711588,4.11669922 33.8266602,4.11669922 C33.9462897,4.11669922 34.0539546,4.13151027 34.1496582,4.16113281 C34.2453618,4.19075536 34.3265378,4.2320554 34.3931885,4.28503418 C34.4598392,4.33801296 34.5111082,4.40095992 34.5469971,4.47387695 C34.5828859,4.54679398 34.6008301,4.62654579 34.6008301,4.71313477 L34.1069336,4.71313477 C34.1069336,4.64249639 34.0841474,4.58410668 34.0385742,4.53796387 C33.9930011,4.49182106 33.9217941,4.46875 33.8249512,4.46875 C33.7417802,4.46875 33.6774091,4.48754864 33.6318359,4.52514648 C33.5862628,4.56274433 33.5634766,4.61059541 33.5634766,4.66870117 C33.5634766,4.69604506 33.5694579,4.72025543 33.5814209,4.74133301 C33.5933838,4.76241059 33.6127521,4.78177888 33.6395264,4.79943848 C33.6663006,4.81709807 33.7016192,4.83333326 33.7454834,4.84814453 C33.7893476,4.8629558 33.84318,4.87662754 33.9069824,4.88916016 C34.0072433,4.90852874 34.1000972,4.93245428 34.1855469,4.9609375 C34.2709965,4.98942072 34.3447669,5.02616351 34.4068604,5.07116699 C34.4689538,5.11617047 34.5176593,5.17085743 34.5529785,5.23522949 C34.5882977,5.29960156 34.605957,5.37735957 34.605957,5.46850586 C34.605957,5.55053752 34.587728,5.62601691 34.5512695,5.69494629 C34.514811,5.76387567 34.4626875,5.8234047 34.3948975,5.87353516 C34.3271074,5.92366562 34.2453618,5.96297186 34.1496582,5.99145508 C34.0539546,6.01993829 33.9468593,6.03417969 33.8283691,6.03417969 C33.6984857,6.03417969 33.5839849,6.0159507 33.4848633,5.97949219 C33.3857417,5.94303367 33.3022871,5.89518259 33.2344971,5.8359375 C33.166707,5.77669241 33.1157228,5.71004269 33.081543,5.63598633 C33.0473631,5.56192997 33.0302734,5.48730506 33.0302734,5.41210938 L33.4985352,5.41210938 C33.5008138,5.45996118 33.5113524,5.50126122 33.5301514,5.53601074 C33.5489503,5.57076026 33.5737303,5.59895823 33.6044922,5.62060547 C33.6352541,5.64225271 33.6708575,5.65820307 33.7113037,5.66845703 C33.7517499,5.67871099 33.7941892,5.68383789 33.838623,5.68383789 C33.9331873,5.68383789 34.0046791,5.66589373 34.0531006,5.63000488 C34.1015221,5.59411603 34.1257324,5.54711943 34.1257324,5.48901367 Z M28.4143066,5.99829102 L28.4143066,3.67919922 L28.8500977,3.67919922 L28.8500977,5.99829102 L28.4143066,5.99829102 Z M27.503418,4.18676758 C27.503418,4.11840786 27.5273435,4.06001815 27.5751953,4.01159668 C27.6230471,3.96317521 27.681152,3.93896484 27.7495117,3.93896484 C27.7722983,3.93896484 27.79423,3.94181312 27.8153076,3.94750977 C27.8363852,3.95320641 27.8560383,3.96146642 27.8742676,3.97229004 C27.8924968,3.98311366 27.9095865,3.99650057 27.9255371,4.01245117 C27.949463,4.03523774 27.9674072,4.06144191 27.9793701,4.09106445 C27.9913331,4.120687 27.9973145,4.15201806 27.9973145,4.18505859 C27.9973145,4.19303389 27.9970296,4.20015459 27.99646,4.2064209 C27.9958903,4.21268721 27.9950358,4.21923825 27.9938965,4.22607422 C27.9927572,4.23291019 27.9916178,4.23946123 27.9904785,4.24572754 C27.9893392,4.25199385 27.9876302,4.25797523 27.9853516,4.26367188 C27.9830729,4.26936852 27.9807943,4.2753499 27.9785156,4.28161621 C27.976237,4.28788252 27.9736735,4.2938639 27.9708252,4.29956055 C27.9679769,4.30525719 27.9648438,4.31066892 27.9614258,4.3157959 L27.9511719,4.33117676 C27.9477539,4.33630374 27.9437663,4.34143064 27.939209,4.34655762 C27.9346517,4.3516846 27.9300944,4.35652667 27.9255371,4.36108398 C27.876546,4.41007511 27.8184411,4.43457031 27.7512207,4.43457031 C27.6817217,4.43457031 27.6230471,4.41035994 27.5751953,4.36193848 C27.5273435,4.31351701 27.503418,4.25512729 27.503418,4.18676758 Z M27.064209,6.3828125 C27.2533375,6.38395183 27.3906246,6.34749386 27.4760742,6.2734375 C27.5615239,6.19938114 27.604248,6.08374102 27.604248,5.92651367 L27.604248,4.82421875 L28.0588379,4.82080078 L28.0588379,5.9230957 C28.0588379,6.2215998 27.974244,6.44860762 27.8050537,6.60412598 C27.6358634,6.75964433 27.3906266,6.837972 27.0693359,6.83911133 L26.8215332,6.84082031 L26.8215332,6.3828125 L27.064209,6.3828125 Z" id="دانلود-اپلیکیشن-ios" fill="#FFFFFF" fill-rule="nonzero"></path>
                <path d="M24.3403924,15.4795961 L23.2012757,15.4795961 L22.5772945,13.459209 L20.4084083,13.459209 L19.8140211,15.4795961 L18.705,15.4795961 L20.8538225,8.60128677 L22.1810364,8.60128677 L24.3403924,15.4795961 Z M22.3891973,12.6115664 L21.8249057,10.8154945 C21.7652162,10.6320109 21.653361,10.19992 21.4883371,9.5197385 L21.4682734,9.5197385 C21.4025648,9.81227856 21.2967287,10.2443695 21.1512669,10.8154945 L20.5970071,12.6115664 L22.3891973,12.6115664 Z M29.8664376,12.9387358 C29.8664376,13.7822435 29.6452352,14.4489868 29.2028306,14.9384487 C28.8065725,15.3741576 28.3145102,15.5917537 27.7271453,15.5917537 C27.0931323,15.5917537 26.6376863,15.3571014 26.3603056,14.8877968 L26.3402419,14.8877968 L26.3402419,17.5005 L25.2708466,17.5005 L25.2708466,12.152599 C25.2708466,11.6223055 25.2573036,11.078057 25.2312208,10.5198534 L26.1717068,10.5198534 L26.2313963,11.3059902 L26.25146,11.3059902 C26.6080923,10.7136741 27.1493107,10.4180329 27.8756167,10.4180329 C28.4434195,10.4180329 28.9174244,10.6490672 29.2966284,11.1116526 C29.6768356,11.5747549 29.8664376,12.1836103 29.8664376,12.9387358 Z M28.7769785,12.9790505 C28.7769785,12.4963077 28.6716441,12.0983292 28.459972,11.7851149 C28.2287379,11.4584624 27.9182521,11.2951362 27.5290163,11.2951362 C27.2651786,11.2951362 27.0254173,11.3861027 26.8112373,11.5654515 C26.5965557,11.7463508 26.4561098,11.9825536 26.3904011,12.2750937 C26.357296,12.4115435 26.3407435,12.5231842 26.3407435,12.6110496 L26.3407435,13.4380179 C26.3407435,13.7987829 26.4480843,14.1032106 26.6627659,14.351818 C26.8774475,14.6004253 27.156333,14.7244706 27.4994223,14.7244706 C27.9022011,14.7244706 28.2156965,14.5642455 28.4399083,14.2448289 C28.6646218,13.9248956 28.7769785,13.5031417 28.7769785,12.9790505 Z M35.4025146,12.9387358 C35.4025146,13.7822435 35.1813123,14.4489868 34.7384061,14.9384487 C34.3426495,15.3741576 33.8505872,15.5917537 33.2632224,15.5917537 C32.6292094,15.5917537 32.1737633,15.3571014 31.8968842,14.8877968 L31.8768205,14.8877968 L31.8768205,17.5005 L30.8074252,17.5005 L30.8074252,12.152599 C30.8074252,11.6223055 30.7938822,11.078057 30.7677994,10.5198534 L31.7082854,10.5198534 L31.7679749,11.3059902 L31.7880386,11.3059902 C32.1441694,10.7136741 32.6853877,10.4180329 33.4121953,10.4180329 C33.9794965,10.4180329 34.4535015,10.6490672 34.8337086,11.1116526 C35.212411,11.5747549 35.4025146,12.1836103 35.4025146,12.9387358 Z M34.3130556,12.9790505 C34.3130556,12.4963077 34.2072195,12.0983292 33.9955475,11.7851149 C33.7643133,11.4584624 33.4548307,11.2951362 33.0650933,11.2951362 C32.800754,11.2951362 32.5614944,11.3861027 32.3468128,11.5654515 C32.1321311,11.7463508 31.9921868,11.9825536 31.9264782,12.2750937 C31.8938747,12.4115435 31.8768205,12.5231842 31.8768205,12.6110496 L31.8768205,13.4380179 C31.8768205,13.7987829 31.9841613,14.1032106 32.1978398,14.351818 C32.4125214,14.5999085 32.6914068,14.7244706 33.0354993,14.7244706 C33.4382782,14.7244706 33.7517735,14.5642455 33.9759854,14.2448289 C34.2006988,13.9248956 34.3130556,13.5031417 34.3130556,12.9790505 Z M41.5921668,13.5506924 C41.5921668,14.1357725 41.3950409,14.6117962 40.9992844,14.9792802 C40.5644036,15.3808767 39.9589814,15.5814166 39.1810113,15.5814166 C38.4627308,15.5814166 37.8869025,15.4387645 37.4510186,15.1529436 L37.6988053,14.2344918 C38.168296,14.5270319 38.6834315,14.6738188 39.2447136,14.6738188 C39.6474924,14.6738188 39.9609878,14.5797511 40.1862028,14.3926495 C40.4104147,14.205548 40.5222698,13.9543563 40.5222698,13.641142 C40.5222698,13.3620402 40.4299768,13.1268711 40.2448891,12.9361515 C40.0608047,12.7454319 39.7533284,12.5681506 39.3239652,12.4043075 C38.1552546,11.9551603 37.5714008,11.2972036 37.5714008,10.431988 C37.5714008,9.86654835 37.7760506,9.40292922 38.1858517,9.04216427 C38.594148,8.68088247 39.1388776,8.5005 39.8200403,8.5005 C40.4274688,8.5005 40.932071,8.60955645 41.3348498,8.8271525 L41.0675009,9.72544688 C40.6913065,9.51456995 40.265956,9.40913148 39.7899447,9.40913148 C39.4137503,9.40913148 39.119817,9.5047497 38.9091482,9.69495242 C38.7310828,9.86499779 38.6417993,10.0722567 38.6417993,10.317763 C38.6417993,10.5896288 38.7436226,10.8144608 38.9482724,10.9912253 C39.1263377,11.1545516 39.4498649,11.3313161 39.9193556,11.5220356 C40.4936791,11.7603059 40.9155184,12.0388909 41.18688,12.3583074 C41.4572384,12.6766902 41.5921668,13.0751856 41.5921668,13.5506924 Z M45.1278927,11.3468217 L43.9491502,11.3468217 L43.9491502,13.7548502 C43.9491502,14.3673236 44.1568095,14.6733019 44.5731313,14.6733019 C44.7642381,14.6733019 44.9227413,14.6562457 45.0481395,14.6221333 L45.0777334,15.4589219 C44.8670646,15.5400681 44.5896839,15.5808997 44.246093,15.5808997 C43.823752,15.5808997 43.4937041,15.4480679 43.2554477,15.1829212 C43.0181944,14.9172576 42.8988154,14.4717284 42.8988154,13.8458167 L42.8988154,11.345788 L42.1965858,11.345788 L42.1965858,10.5188196 L42.8988154,10.5188196 L42.8988154,9.61070502 L43.9491502,9.28405252 L43.9491502,10.5188196 L45.1278927,10.5188196 L45.1278927,11.3468217 Z M50.4462786,12.9588932 C50.4462786,13.7212546 50.2346065,14.3471663 49.8122656,14.8366282 C49.3693593,15.340562 48.7814929,15.5917537 48.0486661,15.5917537 C47.3424238,15.5917537 46.7801386,15.3503823 46.3608072,14.8676395 C45.9414758,14.3848967 45.7318101,13.7755244 45.7318101,13.0410731 C45.7318101,12.2725094 45.9474949,11.6429798 46.3803693,11.1535179 C46.8122405,10.6635391 47.395091,10.4185497 48.1279178,10.4185497 C48.8341601,10.4185497 49.4024644,10.6599211 49.8313261,11.1431808 C50.2416288,11.6119684 50.4462786,12.2172059 50.4462786,12.9588932 Z M49.3367558,12.9945562 C49.3367558,12.5371393 49.2419548,12.1448462 49.0498449,11.8176768 C48.825633,11.4217657 48.5051154,11.224327 48.0897967,11.224327 C47.6599319,11.224327 47.3333952,11.4222826 47.1091833,11.8176768 C46.9170733,12.145363 46.8222723,12.5438584 46.8222723,13.0152304 C46.8222723,13.4726472 46.9170733,13.8649404 47.1091833,14.1915929 C47.3404175,14.587504 47.6634431,14.7849427 48.0802665,14.7849427 C48.4885628,14.7849427 48.8090805,14.5833691 49.0403146,14.1812558 C49.2374405,13.8478841 49.3367558,13.4514562 49.3367558,12.9945562 Z M53.922315,11.4889569 C53.8164789,11.4687995 53.7036206,11.4584624 53.5852448,11.4584624 C53.2090504,11.4584624 52.9181267,11.6047325 52.7134769,11.8977894 C52.5354116,12.156217 52.4461281,12.4828695 52.4461281,12.87723 L52.4461281,15.4795961 L51.3772343,15.4795961 L51.3872662,12.0817898 C51.3872662,11.510148 51.3737232,10.9896748 51.3471388,10.5203702 L52.2785962,10.5203702 L52.3177204,11.4693164 L52.3473143,11.4693164 C52.4601727,11.1431808 52.638238,10.8806183 52.882012,10.6836965 C53.1202685,10.5064151 53.3775855,10.4180329 53.6549661,10.4180329 C53.7537799,10.4180329 53.8430634,10.4252689 53.922315,10.4381902 L53.922315,11.4889569 Z M58.705,12.7650724 C58.705,12.9625111 58.6924602,13.1289385 58.6658758,13.2648714 L55.4576898,13.2648714 C55.4702296,13.7548502 55.6252217,14.1295702 55.9231677,14.3879978 C56.1935261,14.6190321 56.5431361,14.7348077 56.9724993,14.7348077 C57.4475075,14.7348077 57.8808834,14.6567626 58.2706208,14.5001554 L58.4381528,15.2651012 C57.9827067,15.4697758 57.4449995,15.5715963 56.8245295,15.5715963 C56.0781598,15.5715963 55.4922997,15.3452137 55.065946,14.8929654 C54.6405955,14.4407171 54.4274187,13.8334122 54.4274187,13.0715676 C54.4274187,12.3236781 54.6255477,11.7008675 55.0223075,11.2041697 C55.4376261,10.6738762 55.9989082,10.4087295 56.7051505,10.4087295 C57.398853,10.4087295 57.9240204,10.6738762 58.2806527,11.2041697 C58.5630493,11.6254067 58.705,12.1463967 58.705,12.7650724 Z M57.6852623,12.4792515 C57.6922846,12.152599 57.6225633,11.8703961 57.477603,11.6321258 C57.2925154,11.3256306 57.0081124,11.1726415 56.6253973,11.1726415 C56.2757872,11.1726415 55.9913843,11.3220127 55.7741947,11.6217887 C55.5961293,11.860059 55.4902933,12.1458799 55.4576898,12.4787347 L57.6852623,12.4787347 L57.6852623,12.4792515 Z" id="Combined-Shape" fill="#FFFFFF"></path>
            </g>
        </g>
    </g>
</svg>