<?xml version="1.0" encoding="UTF-8"?>
<svg width="45px" height="26px" viewBox="0 0 45 26" version="1.1" xmlns="http://www.w3.org/2000/svg" xmlns:xlink="http://www.w3.org/1999/xlink">
    <!-- Generator: Sketch 52.5 (67469) - http://www.bohemiancoding.com/sketch -->
    <title>Page 1</title>
    <desc>Created with Sketch.</desc>
    <g id="Page-1" stroke="none" stroke-width="1" fill="none" fill-rule="evenodd">
        <g id="1" transform="translate(-1167.000000, -1664.000000)" fill="#37B34A">
            <path d="M1212,1683.00956 C1211.34202,1684.58441 1210.38505,1686.0125 1209.18365,1687.21203 C1207.98283,1688.41166 1206.5604,1689.35903 1204.99932,1690 L1203.88525,1687.19726 C1205.0765,1686.70949 1206.19311,1685.97453 1207.15896,1684.99245 C1208.08167,1684.05539 1208.78269,1682.97803 1209.26278,1681.82857 L1212,1683.00956 Z M1208.40476,1681.96782 C1208.00905,1682.91087 1207.43117,1683.79359 1206.6699,1684.56251 C1205.87278,1685.36755 1204.9522,1685.96991 1203.96931,1686.37027 C1201.03849,1687.56504 1197.55691,1686.96267 1195.18054,1684.56251 C1195.16585,1684.54767 1195.15172,1684.53272 1195.13759,1684.51778 L1192.6516,1687.02857 L1190.60656,1684.96287 L1198.77241,1676.71495 L1200.81754,1678.78074 L1197.17903,1682.45582 L1197.17903,1682.4564 C1198.7158,1684.00871 1200.97135,1684.39288 1202.86458,1683.60959 C1203.4874,1683.35156 1204.07087,1682.96738 1204.57678,1682.4564 C1205.0622,1681.966 1205.43221,1681.40271 1205.68701,1680.80229 C1206.50433,1678.87518 1206.13441,1676.5571 1204.57678,1674.98439 L1206.62618,1672.91429 C1206.64088,1672.92856 1206.65577,1672.9435 1206.6699,1672.95777 C1209.08173,1675.39404 1209.6598,1678.98025 1208.40476,1681.96782 Z M1177.32787,1678.71596 L1169.07292,1687.02857 L1167,1684.9405 L1175.25428,1676.62857 L1175.53071,1676.90683 L1177.32787,1678.71596 Z M1189.20026,1672.6079 C1190.76504,1674.17206 1191.54686,1676.22309 1191.54686,1678.27346 L1191.54686,1678.27767 C1191.54555,1680.32689 1190.76382,1682.37605 1189.20026,1683.93899 C1186.07135,1687.06796 1180.99826,1687.06796 1177.86936,1683.93899 L1175.85246,1681.922 L1178.47827,1679.29622 L1181.48868,1676.285 L1183.50638,1678.30255 L1179.88696,1681.922 C1181.90148,1683.93656 1185.16814,1683.93656 1187.18331,1681.922 C1189.19783,1679.90682 1189.19783,1676.6401 1187.18331,1674.62554 L1185.1658,1672.6079 L1186.81306,1670.96051 L1190.80272,1666.97143 L1192.81967,1668.98851 L1189.20026,1672.6079 Z M1189.13115,1665.95758 L1184.79913,1670.31985 L1183.69864,1671.42857 L1181.7541,1669.47036 L1187.18652,1664 L1189.13115,1665.95758 Z" id="Page-1"></path>
        </g>
    </g>
</svg>